<?xml version="1.0" encoding="utf-8"?>
<!-- Generator: Adobe Illustrator 19.0.0, SVG Export Plug-In . SVG Version: 6.00 Build 0)  -->
<svg version="1.1" id="Capa_1" xmlns="http://www.w3.org/2000/svg" xmlns:xlink="http://www.w3.org/1999/xlink" x="0px" y="0px"
	 viewBox="-155 347 100 100" style="enable-background:new -155 347 100 100;" xml:space="preserve">
<style type="text/css">
	.st0{clip-path:url(#SVGID_2_);}
	.st1{fill:#F8D1D2;stroke:#DF4444;stroke-width:0.808;stroke-linecap:square;stroke-miterlimit:3;}
	.st2{fill:none;stroke:#FFFFFF;stroke-width:2.4235;stroke-linecap:round;stroke-linejoin:round;stroke-miterlimit:3;}
	.st3{fill:#FFFFFF;}
	.st4{enable-background:new    ;}
	.st5{fill:#464646;}
	.st6{fill:#FF5D4D;}
	.st7{fill:none;stroke:#FFFFFF;stroke-width:5.6545;stroke-linecap:round;stroke-linejoin:round;stroke-miterlimit:3;}
	.st8{fill:#FF9E94;}
	.st9{fill:none;}
	.st10{fill:none;stroke:#000000;stroke-width:0.808;stroke-linecap:round;stroke-linejoin:round;stroke-miterlimit:3;}
	.st11{fill:none;stroke:#FFFFFF;stroke-width:0.808;stroke-linecap:round;stroke-linejoin:round;stroke-miterlimit:3;}
</style>
<g>
	<defs>
		<rect id="SVGID_1_" x="-155" y="347" width="100" height="100"/>
	</defs>
	<clipPath id="SVGID_2_">
		<use xlink:href="#SVGID_1_"  style="overflow:visible;"/>
	</clipPath>
	<g class="st0">
		<g id="Aprobado">
			<g id="Group_1_">
				<path vector-effect="non-scaling-stroke" class="st1" d="M-140.4,399.3c-0.1-14.2-1.2-26.5-0.3-36.6l0.2-6.9
					c0.1-1.5,1.3-2.8,2.7-2.8c0,0,2.9,0.4,7.2,0.4c8.2,0,17.4-2.6,29.9-1.1c1.5,0.2,2.7,1.6,2.6,3.1l-0.6,11.4l0.5,17.7l0.1,14.5
					l0.3,12.8v5.6c0,1.5-1.3,2.8-2.8,2.9c-0.9,0-4-0.3-7.2-0.3c-13,1.2-21.8,0.1-26.4,0l-3.4,0c-1.5,0-2.8-1.2-2.9-2.8
					C-140.5,412.4-140.3,406.2-140.4,399.3z"/>
				<line vector-effect="non-scaling-stroke" class="st2" x1="-131.8" y1="376.3" x2="-105.2" y2="376.3"/>
				<line vector-effect="non-scaling-stroke" class="st2" x1="-131.8" y1="381.2" x2="-105.2" y2="381.2"/>
				<line vector-effect="non-scaling-stroke" class="st2" x1="-131.8" y1="386" x2="-105.2" y2="386"/>
				<path class="st3" d="M-126,364.7c0-4.1,3.3-7.5,7.5-7.5s7.5,3.3,7.5,7.5c0,4.1-3.3,7.5-7.5,7.5S-126,368.8-126,364.7z"/>
				<g id="Group">
					<g transform="matrix(1.616,0,0,1.616,45.476,87.888)">
						<g class="st4">
							<path class="st5" d="M-106.8,193c-0.2,0.2-0.6,0.4-1,0.4v0.7h-0.5v-0.7c-0.3,0-0.6-0.1-0.8-0.2c-0.3-0.1-0.5-0.2-0.6-0.3
								l0.3-0.6c0.1,0.1,0.3,0.2,0.5,0.3c0.2,0.1,0.4,0.1,0.7,0.2v-1.2c-0.3-0.1-0.5-0.1-0.7-0.2c-0.2-0.1-0.3-0.2-0.5-0.4
								c-0.1-0.2-0.2-0.4-0.2-0.6c0-0.3,0.1-0.6,0.4-0.8c0.2-0.2,0.6-0.4,1-0.4v-0.7h0.5v0.7c0.2,0,0.4,0.1,0.7,0.1
								c0.2,0.1,0.4,0.1,0.6,0.3l-0.2,0.6c-0.3-0.2-0.6-0.3-1-0.3v1.2c0.3,0.1,0.5,0.1,0.7,0.2c0.2,0.1,0.4,0.2,0.5,0.4
								c0.1,0.2,0.2,0.4,0.2,0.6C-106.4,192.5-106.5,192.8-106.8,193z M-108.8,190.6c0.1,0.1,0.3,0.1,0.4,0.2v-1.1
								c-0.2,0-0.4,0.1-0.5,0.2c-0.1,0.1-0.2,0.2-0.2,0.4C-108.9,190.4-108.9,190.5-108.8,190.6z M-107.3,192.6
								c0.1-0.1,0.2-0.2,0.2-0.3c0-0.1-0.1-0.2-0.2-0.3c-0.1-0.1-0.3-0.2-0.5-0.2v1.1C-107.6,192.7-107.4,192.6-107.3,192.6z"/>
							<path class="st5" d="M-102.9,192.7v0.7h-3.1v-0.5l1.7-1.6c0.2-0.2,0.3-0.3,0.4-0.5c0.1-0.1,0.1-0.3,0.1-0.4
								c0-0.2-0.1-0.3-0.2-0.5c-0.1-0.1-0.3-0.2-0.6-0.2c-0.4,0-0.8,0.1-1,0.4l-0.5-0.4c0.2-0.2,0.4-0.4,0.7-0.5
								c0.3-0.1,0.6-0.2,0.9-0.2c0.5,0,0.8,0.1,1.1,0.3c0.3,0.2,0.4,0.5,0.4,0.9c0,0.2,0,0.4-0.1,0.6c-0.1,0.2-0.3,0.4-0.6,0.7
								l-1.1,1.1H-102.9z"/>
							<path class="st5" d="M-101.6,193.1c-0.3-0.2-0.5-0.4-0.6-0.7c-0.2-0.3-0.2-0.7-0.2-1.2c0-0.4,0.1-0.8,0.2-1.2
								c0.2-0.3,0.4-0.6,0.6-0.7c0.3-0.2,0.6-0.3,0.9-0.3c0.3,0,0.6,0.1,0.9,0.3c0.3,0.2,0.5,0.4,0.6,0.7c0.2,0.3,0.2,0.7,0.2,1.2
								c0,0.4-0.1,0.8-0.2,1.2c-0.2,0.3-0.4,0.6-0.6,0.7c-0.3,0.2-0.6,0.3-0.9,0.3C-101.1,193.4-101.4,193.3-101.6,193.1z
								 M-100,192.4c0.2-0.2,0.3-0.6,0.3-1.1c0-0.5-0.1-0.9-0.3-1.1c-0.2-0.2-0.4-0.4-0.7-0.4c-0.3,0-0.5,0.1-0.7,0.4
								c-0.2,0.2-0.3,0.6-0.3,1.1c0,0.5,0.1,0.9,0.3,1.1c0.2,0.2,0.4,0.4,0.7,0.4C-100.4,192.7-100.2,192.6-100,192.4z"/>
							<path class="st5" d="M-97.6,193.1c-0.3-0.2-0.5-0.4-0.6-0.7c-0.2-0.3-0.2-0.7-0.2-1.2c0-0.4,0.1-0.8,0.2-1.2
								c0.2-0.3,0.4-0.6,0.6-0.7c0.3-0.2,0.6-0.3,0.9-0.3c0.3,0,0.6,0.1,0.9,0.3c0.3,0.2,0.5,0.4,0.6,0.7c0.2,0.3,0.2,0.7,0.2,1.2
								c0,0.4-0.1,0.8-0.2,1.2c-0.2,0.3-0.4,0.6-0.6,0.7c-0.3,0.2-0.6,0.3-0.9,0.3C-97,193.4-97.3,193.3-97.6,193.1z M-96,192.4
								c0.2-0.2,0.3-0.6,0.3-1.1c0-0.5-0.1-0.9-0.3-1.1c-0.2-0.2-0.4-0.4-0.7-0.4c-0.3,0-0.5,0.1-0.7,0.4c-0.2,0.2-0.3,0.6-0.3,1.1
								c0,0.5,0.1,0.9,0.3,1.1s0.4,0.4,0.7,0.4C-96.4,192.7-96.1,192.6-96,192.4z"/>
						</g>
					</g>
				</g>
				<path class="st6" d="M-132,406.6h26.9c0.9,0,1.7,0.7,1.7,1.7v5.8c0,0.9-0.7,1.7-1.7,1.7H-132c-0.9,0-1.7-0.7-1.7-1.7v-5.8
					C-133.7,407.3-132.9,406.6-132,406.6z"/>
			</g>
			<path class="st6" d="M-102.1,368.2c0-9.1,7.4-16.6,16.6-16.6s16.6,7.4,16.6,16.6s-7.4,16.6-16.6,16.6S-102.1,377.4-102.1,368.2z"
				/>
			<path vector-effect="non-scaling-stroke" class="st7" d="M-92.6,367.8l6.5,7.7c8.3-7.3,8.5-9.4,15.4-17.1"/>
			<path class="st8" d="M-103,437.5c-0.9-1.5-0.6-2.7,0.9-3.7c3.1-0.3,4.4-1.9,4-4.8c-0.3-6.5-1.4-8.2-3.4-5.3
				c-1.5-3.9-3.2-4.2-5-0.8c-1.2-3.2-3.2-3.2-6.1,0.2l-3-10.2c-2.2-4.2-4.2-0.7-3.9,0.7c0.2,0.9,1.2,5,2.8,12.3
				c-3.2,0.1-4.2,2.4-2.8,6.7c0.5,2.7,2.4,3.4,5.5,2c2,0.2,2.9,2,2.5,5.5l0,0c-0.3,3,0.7,2.8,2.9-0.3c1,1.9,1.7,1.8,2.2-0.3
				c1.1,1.2,1.6,1.1,1.7-0.2c4.4,3,5.4,2.9,2.9-0.5L-103,437.5z"/>
			<path class="st6" d="M-118.4,412.9c0.9,0.1,1.6-0.1,2-0.5c0.6,1.2,0.6,2,0.1,2.2C-117.3,415.1-118,414.5-118.4,412.9z"/>
			<line class="st9" x1="-116.6" y1="425.9" x2="-114.9" y2="432.5"/>
			<path vector-effect="non-scaling-stroke" class="st10" d="M-111.9,426.5c0.9-0.9,1.9-1,3.1-0.2c1.2-1.1,2.7-1.2,4.2-0.2
				c1.4-1.2,2.6-1.1,3.8,0.4"/>
			<line vector-effect="non-scaling-stroke" class="st11" x1="-113.7" y1="407.4" x2="-108.8" y2="399.3"/>
			<line vector-effect="non-scaling-stroke" class="st11" x1="-118" y1="406" x2="-117.4" y2="396.6"/>
			<line vector-effect="non-scaling-stroke" class="st11" x1="-121.3" y1="408.1" x2="-127.5" y2="403.3"/>
			<line vector-effect="non-scaling-stroke" class="st11" x1="-123.7" y1="412.8" x2="-132.1" y2="410.1"/>
			<line vector-effect="non-scaling-stroke" class="st11" x1="-113.3" y1="412.6" x2="-105.7" y2="407.8"/>
		</g>
	</g>
</g>
</svg>
