<?xml version="1.0" encoding="utf-8"?>
<!-- Generator: Adobe Illustrator 19.0.0, SVG Export Plug-In . SVG Version: 6.00 Build 0)  -->
<svg version="1.1" id="Capa_1" xmlns="http://www.w3.org/2000/svg" xmlns:xlink="http://www.w3.org/1999/xlink" x="0px" y="0px"
	 width="500px" height="412.7px" viewBox="319.4 87.1 500 412.7" style="enable-background:new 319.4 87.1 500 412.7;"
	 xml:space="preserve">
<style type="text/css">
	.st0{fill:#F8D2D2;}
	.st1{fill:#FF9E94;}
	.st2{fill:#FF5D4D;}
	.st3{opacity:0.42;}
	.st4{fill:#FEA097;}
	.st5{fill:#DB211F;}
	.st6{fill:#FFFFFF;}
	.st7{opacity:0.2;}
	.st8{fill:#747474;}
</style>
<g>
	<g>
		<path class="st0" d="M438.9,369.1l19.5,0.1l-2.2,2.5c-0.3,2.5,0,4,0.8,4.7l-16.7-0.9l0.6-4.1L438.9,369.1z"/>
	</g>
	<g>
		<path class="st0" d="M401.7,411.6c6.2-1.1,16.5-0.8,30.9,1.3c20.2-0.4,31.4,0.2,33.7,1.8c16.5,39.9,76,11.1,43.5-48.9
			c18.1,16,13.9,37.8,14.9,36.1c44.4,22,81.2,20,110.4-6.1l-1.7,17.4l-0.9,6.1l-12.1,1.3l2.5,15c-9.4,10-27,8.9-52.6-3.3l-47.2,0.8
			c-17.2,12.2-36.9,11.4-58.9-2.5l-58.5-3.3c-20.6,13.9-40.5,12.4-59.7-4.6c-32.8-7.2-35.2-15-7.1-23.4l3.4-10l13.2,22.4
			c9.3,18.9,21.7,20.8,36.9,5.8c9.7-15.6,8.8-34-2.5-55.3C405.8,373.7,409.7,390.2,401.7,411.6z"/>
	</g>
	<g>
		<path class="st0" d="M364.4,332.2l2.3,7.7l7.1-1.6l-2.5-6.9L364.4,332.2z"/>
	</g>
	<g>
		<path class="st0" d="M372.2,322.2l0.1,8.9l29.9-3.4l4.2-6.3L372.2,322.2z"/>
	</g>
	<g>
		<path class="st1" d="M742,246.9c0,0,0.2,0,0.2,0c1.8,0,3.3,2.4,3.3,5.4s-1.5,5.4-3.3,5.4c-0.3,0-0.5,0-0.8-0.1
			c-1.3,10.7-4.4,17.2-9.5,19.4c0.1,4.2,0.1,6.4,0,6.7c-2,2.3-4.7,7.2-8.3,15l-4.6-14.1l-0.4-7.6c-5.1-4.6-8.3-10.6-9.5-18
			c-0.2,0-0.3,0.1-0.5,0.1c-1.8,0-3.3-2.4-3.3-5.4c0-3,1.5-5.4,3.3-5.4c0,0,0.1,0,0.1,0c0.2-3.5,0.8-7.3,1.6-11.3
			c12.8-8.6,23.4-7.5,31.7,3.3C742,242.6,742,244.8,742,246.9z"/>
	</g>
	<g>
		<path class="st2" d="M710.1,238.4c-5.5-5-5.5-10.6,0-16.7c2.6,6.4,5.3,8.6,8.3,6.7c10.6-5.5,18.4-4.4,23.4,3.3
			c4.3,5.4-0.2,17,0,25l-1.7-1.6v-15C732.7,232,722.7,231.4,710.1,238.4z"/>
	</g>
	<g>
		<path class="st2" d="M710.1,236.7c-2,8.9-2.6,15-1.6,18.4l1.6-1.6c-0.8-6.5-0.2-12.1,1.7-16.7L710.1,236.7L710.1,236.7z"/>
	</g>
	<g>
		<path class="st2" d="M733.3,245.8c-2.3,0-4.5-2.1-6.7-6.3l-0.4-0.7l1.5-0.8l0.4,0.8c1.5,2.8,3.7,5.9,5.8,5.3l0.8-0.2l0.5,1.6
			l-0.8,0.3C734,245.8,733.7,245.8,733.3,245.8z"/>
	</g>
	<g>
		<path class="st2" d="M713.5,245.5l-0.2-1.6l0.9-0.1c2.9-0.4,5-1.9,6.2-4.4l0.3-0.7l1.5,0.7l-0.3,0.8c-1.5,3.1-4,4.9-7.5,5.3
			L713.5,245.5z"/>
	</g>
	<g>
		<path d="M722.3,259.1c-0.6,0-1.1-0.1-1.5-0.4c-0.8-0.4-1.3-1.1-1.5-2c-0.4-1.4-0.2-2.6,0.5-3.4c0.9-1.1,2.5-1.7,5.1-1.8
			c0.2,0,0.4,0.2,0.4,0.4c0,0.3-0.2,0.4-0.4,0.4c-2.3,0.1-3.8,0.5-4.5,1.4c-0.5,0.6-0.6,1.6-0.3,2.8c0.2,0.7,0.5,1.2,1,1.5
			c0.9,0.4,2.2,0.3,3.9-0.4c0.2-0.1,0.5,0,0.5,0.3c0.1,0.2,0,0.5-0.3,0.6C724.2,258.9,723.2,259.1,722.3,259.1z"/>
	</g>
	<g>
		<path d="M716.6,247.4c0-0.9,0.7-1.5,1.5-1.5c0.8,0,1.5,0.7,1.5,1.5s-0.7,1.5-1.5,1.5C717.3,248.9,716.6,248.2,716.6,247.4z"/>
	</g>
	<g>
		<path d="M728.1,247.4c0-0.9,0.7-1.5,1.5-1.5s1.5,0.7,1.5,1.5s-0.7,1.5-1.5,1.5S728.1,248.2,728.1,247.4z"/>
	</g>
	<g>
		<path d="M731.1,265.2c-0.1,0-0.2,0-0.3-0.1c-4.5-3.7-8.3-3.8-11.5,0c-0.1,0.2-0.4,0.2-0.6,0s-0.2-0.4,0-0.6
			c3.5-4.1,7.8-4.1,12.7,0c0.2,0.1,0.2,0.4,0,0.6C731.4,265.2,731.2,265.2,731.1,265.2z"/>
	</g>
	<g class="st3">
		<g>
			<path class="st4" d="M637.1,480.2c9.1-5.4,22-8.2,38.7-8.6c-8.7-2.2-9.3-4.4-1.6-6.5c27.2-3.3,43.1-3.1,47.6,0.4
				c4.3,3.3,7.8,4.1,10.4,2.3c30.5-3.6,51.9,0.5,64.2,12.4c1.5,5.9-1.5,10.6-8.9,13.9c-34.5,4.8-60.3,5.2-77.4,1.1
				C661.8,505.2,637.5,500.2,637.1,480.2z M689.1,478.5c-9.2,2.6-17.4,3.6-24.4,3c-5.2,2.9-4.6,5.6,1.8,8.1c15.9,1.5,26.6,1,32-1.5
				c5.7,0,6.2-2.8,1.6-8.7L689.1,478.5z"/>
		</g>
	</g>
	<g>
		<path class="st1" d="M656.4,293.2l-9.9,0.5c-7-3.9-8-8.1-3-12.4c5.3,2.9,10.6,3.5,16.1,1.9c-1.6-2.4-1.9-4.4-0.8-6
			c2.5-1.8,4.3-0.3,5.6,4.4l-1,6.9l0,0l-0.1,0v0.2l0,0l3.1,6.9l-7.3,4.4L656.4,293.2L656.4,293.2z"/>
	</g>
	<g id="Group">
		<g>
			<path class="st2" d="M649,287.2c-2.5,0-5-1-7.6-2.9L641,284l0.5-0.6l0.3,0.3c3.2,2.4,6.3,3.2,9.2,2.5l0.4-0.1l0.2,0.8l-0.4,0.1
				C650.5,287.1,649.8,287.2,649,287.2z"/>
		</g>
		<g>
			<path class="st2" d="M647.3,290.4c-2.1,0-4.3-0.4-6.8-1.2l-0.4-0.1l0.3-0.8l0.4,0.1c4.1,1.3,7.7,1.5,10.8,0.4l0.4-0.1l0.3,0.8
				l-0.4,0.1C650.5,290.1,648.9,290.4,647.3,290.4z"/>
		</g>
	</g>
	<g>
		<path class="st1" d="M796.2,288.1l-0.9-6.8c1.3-4.6,3.2-6.1,5.6-4.4c1.2,1.6,1,3.6-0.8,6c5.4,1.6,10.8,1,16.1-1.9
			c5,4.3,4,8.4-3,12.4l-9.8-0.5l-2.2,4.7l-6.8-4.9L796.2,288.1z"/>
	</g>
	<g>
		<path class="st5" d="M682.4,491.4c-4.5,0-9.9-0.3-16-0.9c-0.1,0-0.2,0-0.2,0c-3.8-1.5-5.7-3.1-5.8-4.9c-0.1-1.6,1.2-3.2,3.9-4.7
			c0.2-0.1,0.3-0.1,0.5-0.1c6.9,0.5,15-0.4,24.1-3c0.5-0.1,0.9,0.1,1,0.6c0.1,0.5-0.1,0.9-0.6,1c-9.2,2.5-17.4,3.6-24.5,3.1
			c-1.9,1.1-3,2.2-2.8,3c0,0.6,0.7,1.9,4.6,3.5c15.6,1.5,26.2,1,31.5-1.4c0.1,0,0.3,0,0.3-0.1c2.1,0,3.4-0.4,3.8-1.1
			c0.3-0.6,0.3-2.3-2.8-6.3c-0.3-0.4-0.2-0.9,0.1-1.1c0.4-0.3,0.9-0.2,1.2,0.1c2.9,3.7,3.8,6.3,3,8c-0.7,1.4-2.4,2-5,2l0,0
			C695.2,490.6,689.8,491.4,682.4,491.4z"/>
	</g>
	<g>
		<path class="st0" d="M662.7,311.4c8.9,8.4,20.3,9,34.2,1.8C682.4,325.2,671,324.6,662.7,311.4z"/>
	</g>
	<g>
		<path class="st0" d="M749.8,317.5c20.3,9.4,37.8,3.4,52.4-18.2C787.6,325.8,770.2,331.9,749.8,317.5z"/>
	</g>
	<g>
		<path class="st5" d="M715.1,370.6c-11.3,0-19.2-2.1-23.9-6.2c-0.2-0.1-0.3-0.5-0.3-0.7c1.5-20.6,3.1-36.8,4.7-48.2
			c-8.2,5.9-15.5,8.1-21.8,6.4c-7-1.9-12.7-8.6-17.1-19.9c-0.2-0.4,0-0.8,0.3-1l10.6-6.7c0.2-0.1,0.5-0.1,0.7-0.1
			c0.3,0.1,0.5,0.3,0.5,0.5c3.7,9.7,7.9,14.8,12.4,15c5.7,0.3,12.3-6.9,19.6-21.5c0-0.1,0.1-0.3,0.3-0.3c6.4-4.3,12.2-6.1,17.3-5.1
			c0.3,0,0.5,0.3,0.6,0.5l4.4,13.2l7.4-13.4c0.2-0.4,0.7-0.5,1-0.4c12.2,4.8,18.9,9.9,20.5,15.4c6.8,9.2,13.5,13.6,19.8,13.2
			c6.9-0.5,13.7-7,20.2-19.4c0.1-0.2,0.3-0.4,0.5-0.4s0.5,0,0.7,0.1l9.8,6.4c0.3,0.2,0.5,0.7,0.3,1.1c-8.6,15-18.2,23.7-28.5,26
			c-8.3,1.8-17.1-0.6-26.4-6.9c-5.3,20.9-7.4,37.3-6.3,48.7c0,0.5-0.3,0.9-0.7,0.9C731.5,369.7,722.6,370.6,715.1,370.6z
			 M692.6,363.4c7.3,6.1,23.6,7.2,48.4,3c-1-11.7,1.3-28.4,6.8-49.6c0-0.3,0.3-0.5,0.5-0.6s0.5-0.1,0.8,0.1c9.2,6.6,18,9.1,26,7.3
			c9.7-2.1,18.8-10.3,27-24.5l-8.4-5.5c-6.7,12.3-13.8,18.9-21.2,19.4c-6.9,0.5-14.1-4.2-21.3-14c0-0.1-0.1-0.2-0.2-0.3
			c-1.3-4.9-7.6-9.7-18.8-14.2l-8,14.4c-0.1,0.3-0.5,0.4-0.8,0.4c-0.4,0-0.6-0.3-0.7-0.5l-4.8-14.5c-4.5-0.6-9.7,1-15.4,4.8
			c-7.6,15-14.4,22.3-20.7,22.3c-0.1,0-0.3,0-0.4,0c-5.1-0.3-9.5-5.2-13.5-15.1l-9.2,5.8c4.1,10.4,9.5,16.5,15.7,18.2
			c6.1,1.7,13.5-0.8,21.9-7.3c0.3-0.2,0.7-0.3,1,0c0.3,0.1,0.5,0.5,0.4,0.9C695.9,325,694.3,341.7,692.6,363.4z"/>
	</g>
	<g>
		<path vector-effect="non-scaling-stroke" class="st6" d="M729.7,479.6c-3,3.1-3.1,5.4-0.5,7c24.1,5.4,37.6,6.1,40.3,2.1
			c1.7-1.3,0.5-2.5-3.6-3.8c-15.6-4.3-24.3-7.3-26.2-9.1"/>
		<path class="st5" d="M760.5,492.2c-6,0-15.6-1.2-31.3-4.7c-0.1,0-0.1,0-0.3-0.1c-1.3-0.8-2.1-1.8-2.3-3c-0.2-1.5,0.6-3.3,2.5-5.3
			c0.3-0.4,0.9-0.4,1.2,0c0.4,0.3,0.4,0.9,0,1.2c-1.5,1.6-2.2,2.9-2.1,3.9c0.1,0.6,0.5,1.2,1.4,1.7c29.4,6.5,37.6,4.9,39.3,2.5
			c0-0.1,0.1-0.1,0.2-0.2c0.3-0.3,0.4-0.5,0.4-0.5s-0.2-0.8-3.8-1.9c-15.9-4.3-24.6-7.4-26.5-9.3c-0.3-0.4-0.3-0.8,0-1.2
			s0.8-0.4,1.2,0c1.2,1.2,6.7,3.7,25.8,8.9c3.2,1,4.7,2,4.9,3.2c0.1,0.5,0,1.3-1,2C769.2,490.8,766.9,492.2,760.5,492.2z"/>
	</g>
	<g>
		<path class="st5" d="M704.1,327.4c-0.3,0-0.6-0.1-0.8-0.4c-0.2-0.4,0-0.9,0.3-1.1c18.1-9.9,29.5-14.6,34.7-14.3
			c0.5,0,0.8,0.4,0.8,0.9c0,0.4-0.5,0.8-0.9,0.8c-4.8-0.3-16.2,4.5-33.8,14.1C704.3,327.3,704.2,327.4,704.1,327.4z"/>
	</g>
	<g>
		<path class="st5" d="M704.9,335.7c-0.4,0-0.8-0.3-0.8-0.8c0-0.5,0.3-0.9,0.7-0.9c13.1-1.6,22.5-2.1,28-1.3c0.5,0,0.7,0.5,0.7,0.9
			s-0.5,0.8-0.9,0.7C727.2,333.6,717.9,334,704.9,335.7C705,335.7,704.9,335.7,704.9,335.7z"/>
	</g>
	<g>
		<path vector-effect="non-scaling-stroke" class="st6" d="M693,364.6l-3.3,114.9c3.3,2.2,6.7,2.3,10,0.4c3.9-52.6,8.9-84,15-94
			c9.7,32.3,14.5,63.3,14.2,93.2c4.2,1.9,7.6,1.5,10.4-1.3l1.2-110.5C716.6,371.3,700.7,370.4,693,364.6z"/>
		<g>
			<path class="st0" d="M701.1,461.1c6-45,10.4-69.8,13.2-74.6c5.1,16.7,8.4,28.8,9.8,36.3c-2.3-27.4-5.5-40.8-9.3-40.2
				C706.2,383.5,701.7,409.7,701.1,461.1z"/>
		</g>
		<path class="st5" d="M695,482.1c-2,0-3.9-0.6-5.8-1.9c-0.3-0.1-0.4-0.5-0.4-0.7l3.3-114.9c0-0.3,0.2-0.6,0.5-0.8
			c0.3-0.1,0.6-0.1,0.9,0.1c7.5,5.6,23.2,6.5,46.9,2.5c0.3,0,0.5,0,0.7,0.2c0.2,0.1,0.3,0.4,0.3,0.6l-1.2,110.5
			c0,0.2-0.1,0.5-0.3,0.6c-3,3-6.9,3.5-11.4,1.4c-0.3-0.1-0.5-0.5-0.5-0.8c0.3-29-4.3-59.6-13.6-91c-5.6,11.5-10.3,42.4-14,91.9
			c0,0.3-0.1,0.5-0.4,0.6C698.4,481.6,696.7,482.1,695,482.1z M690.5,479c2.8,1.7,5.5,1.8,8.4,0.4c3.9-53,8.9-83.7,15.1-93.9
			c0.1-0.3,0.5-0.5,0.8-0.4c0.4,0,0.6,0.3,0.7,0.6c9.6,32,14.4,63.3,14.2,92.9c3.5,1.5,6.4,1.1,8.7-1l1.2-109.1
			c-22.6,3.7-37.7,3-45.9-2.1L690.5,479z"/>
	</g>
	<g>
		<path class="st5" d="M720.7,388.9c-0.1,0-0.2,0-0.3,0l-12.6-5.2c-0.5-0.2-0.6-0.6-0.5-1.1c0.2-0.5,0.7-0.6,1.1-0.5l12.6,5.2
			c0.5,0.2,0.6,0.6,0.5,1.1C721.3,388.7,721,388.9,720.7,388.9z"/>
	</g>
	<g>
		<path class="st5" d="M738.5,380.1c-0.1,0-0.3,0-0.3,0c-3.7-1.7-5.6-4.4-5.5-8.3c0-0.5,0.4-0.8,0.8-0.8c0.5,0,0.9,0.4,0.8,0.9
			c0,3.1,1.4,5.3,4.5,6.7c0.4,0.2,0.6,0.7,0.4,1.1C739.2,379.9,738.9,380.1,738.5,380.1z"/>
	</g>
	<g>
		<path class="st5" d="M694.6,377.9c-0.1,0-0.3,0-0.4-0.1c-0.4-0.2-0.6-0.7-0.4-1.1l3.5-7.3c0.2-0.4,0.7-0.6,1.1-0.4
			c0.4,0.2,0.6,0.7,0.4,1.1l-3.5,7.3C695.2,377.8,694.9,377.9,694.6,377.9z"/>
	</g>
	<g class="st7">
		<g>
			<path class="st5" d="M693.4,369.8c13.1,7.2,28.7,7.5,46.8,0.8v-3.1c-25.7,4.3-41.8,3.1-48-3.5C692.6,367.6,693,369.5,693.4,369.8
				z"/>
		</g>
	</g>
	<g>
		<path class="st5" d="M352.2,411.5c0,0,0,0-0.1,0l-9.3-1.3c-0.4,0-0.7-0.4-0.7-0.8c-2.1-26,2.3-45,12.9-56.5
			c8.3-9,20.7-13.6,36.9-13.6c4.7-6.3,10.3-13.7,16.5-21.8c15.7-21.4,26.7-31.9,33.6-32.3c45.7-8.6,78.2-9.8,96.6-3.4
			c0.3,0.1,0.5,0.3,0.5,0.5c0.5,0.1,1,0.4,1.5,0.6c4.4,1.5,13.6,4.7,17.2,9.6c0.3,0.4,0.2,0.9-0.1,1.1c-0.4,0.3-0.9,0.2-1.2-0.1
			c-3.3-4.4-12.2-7.5-16.4-9c-2-0.7-2.8-0.9-3-1.4c-18.3-5.9-50.2-4.6-94.9,3.8c-0.1,0-0.1,0-0.1,0c-6.3,0.3-17.2,10.9-32.4,31.6
			c-6.4,8.2-12,15.7-16.8,22.1c-0.1,0.2-0.4,0.4-0.6,0.4l0,0c-0.1,0-0.2,0-0.3,0c-15.7,0-27.7,4.4-35.7,13.1
			c-10.2,11-14.4,29.4-12.5,54.5l8.6,1.1c0.4,0,0.8,0.5,0.7,1C353,411.2,352.6,411.5,352.2,411.5z"/>
	</g>
	<g>
		<path class="st5" d="M523.3,417.1c-0.5,0-0.8-0.4-0.8-0.8c0-0.5,0.3-0.9,0.8-0.9L535,415c2.4-2.3,8.1-2.3,17.2,0l79.5-1.7
			c4.3-13.7,2.2-31.2-6.2-51.9c-2.5-5.8-13.2-13-31.9-21.5c-0.4-0.2-0.6-0.7-0.4-1.1s0.7-0.6,1.1-0.4c19.3,8.8,30,16.1,32.7,22.4
			c8.6,21.3,10.7,39.4,6,53.6c-0.1,0.4-0.4,0.5-0.8,0.6l-80.2,1.7c-0.1,0-0.2,0-0.2,0c-11-2.8-14.7-1.6-16-0.3
			c-0.2,0.1-0.4,0.3-0.6,0.3L523.3,417.1L523.3,417.1z"/>
	</g>
	<g>
		<path class="st5" d="M466.4,420.1L466.4,420.1l-56.7-2.6c-0.4,0-0.8-0.4-0.8-0.9s0.4-0.8,0.9-0.8l56.6,2.6c0.4,0,0.8,0.4,0.8,0.9
			C467.2,419.8,466.8,420.1,466.4,420.1z"/>
	</g>
	<g>
		<path class="st5" d="M378.9,428.3c-15.3,0-27.8-15.7-27.8-35s12.5-35,27.8-35s27.8,15.7,27.8,35S394.2,428.3,378.9,428.3z
			 M378.9,359.9c-14.5,0-26.3,15-26.3,33.5s11.8,33.5,26.3,33.5c14.5,0,26.3-15,26.3-33.5S393.4,359.9,378.9,359.9z"/>
	</g>
	<g>
		<path class="st5" d="M494.2,437.4c-17.1,0-31-17.5-31-39c0-21.5,13.9-39,31-39c17.1,0,31,17.5,31,39
			C525.2,419.9,511.3,437.4,494.2,437.4z M494.2,361c-16.2,0-29.3,16.7-29.3,37.3c0,20.5,13.1,37.3,29.3,37.3
			c16.2,0,29.3-16.7,29.3-37.3C523.5,377.8,510.4,361,494.2,361z"/>
	</g>
	<g>
		<path class="st5" d="M374.6,422c-10.2,0-18.5-12.8-18.5-28.6c0-15.8,8.3-28.6,18.5-28.6s18.5,12.8,18.5,28.6
			C393.2,409.1,384.8,422,374.6,422z M374.6,366.2c-9.4,0-17,12.1-17,27.1c0,14.9,7.6,27.1,17,27.1s17-12.1,17-27.1
			S384,366.2,374.6,366.2z"/>
	</g>
	<g>
		<path class="st5" d="M489.5,430.3c-11.4,0-20.6-14.3-20.6-31.9c0-17.6,9.2-31.9,20.6-31.9c11.4,0,20.6,14.3,20.6,31.9
			C510.1,416,500.9,430.3,489.5,430.3z M489.5,368.1c-10.4,0-19,13.5-19,30.2c0,16.7,8.5,30.2,19,30.2c10.4,0,19-13.5,19-30.2
			C508.5,381.7,499.9,368.1,489.5,368.1z"/>
	</g>
	<g>
		<path class="st5" d="M374.6,401.4c-3,0-5.4-3.5-5.4-8s2.4-8,5.4-8c3,0,5.4,3.5,5.4,8S377.6,401.4,374.6,401.4z M374.6,386.8
			c-2.1,0-3.9,3-3.9,6.5c0,3.5,1.8,6.5,3.9,6.5c2.1,0,3.9-3,3.9-6.5C378.5,389.8,376.7,386.8,374.6,386.8z"/>
	</g>
	<g>
		<path class="st5" d="M489.5,407.3c-3.4,0-6-3.9-6-8.9s2.6-8.9,6-8.9c3.3,0,6,4,6,8.9S492.8,407.3,489.5,407.3z M489.5,391.1
			c-2.4,0-4.3,3.3-4.3,7.2c0,3.9,2,7.2,4.3,7.2c2.3,0,4.3-3.3,4.3-7.2C493.8,394.4,491.8,391.1,489.5,391.1z"/>
	</g>
	<g>
		<path class="st5" d="M374.6,386.9c-0.4,0-0.7-0.3-0.8-0.7l-1.1-15.1c-0.1-0.4,0.3-0.8,0.7-0.8s0.8,0.3,0.8,0.7l1.1,15.1
			C375.4,386.5,375.1,386.9,374.6,386.9L374.6,386.9z"/>
	</g>
	<g>
		<path class="st5" d="M489.5,391.2c-0.5,0-0.8-0.4-0.9-0.8l-1.3-16.8c0-0.5,0.3-0.9,0.8-0.9s0.9,0.3,0.9,0.8l1.3,16.8
			C490.3,390.8,490,391.2,489.5,391.2C489.5,391.2,489.5,391.2,489.5,391.2z"/>
	</g>
	<g>
		<path class="st5" d="M378.5,388.9c-0.1,0-0.3,0-0.4-0.1c-0.3-0.2-0.4-0.6-0.2-1l6.2-10.4c0.2-0.4,0.6-0.5,1-0.3
			c0.4,0.2,0.4,0.6,0.3,1l-6.2,10.4C379,388.8,378.7,388.9,378.5,388.9z"/>
	</g>
	<g>
		<path class="st5" d="M493.8,393.4c-0.1,0-0.3,0-0.5-0.1c-0.4-0.3-0.5-0.8-0.3-1.1l6.9-11.6c0.3-0.4,0.7-0.5,1.1-0.3
			s0.5,0.8,0.3,1.1l-6.9,11.6C494.3,393.2,494.1,393.4,493.8,393.4z"/>
	</g>
	<g>
		<path class="st5" d="M389.7,394.7c0,0,0,0-0.1,0l-10.4-1.1c-0.4,0-0.7-0.4-0.6-0.9c0-0.4,0.4-0.7,0.9-0.6l10.4,1.1
			c0.4,0,0.7,0.4,0.6,0.9C390.4,394.4,390.1,394.7,389.7,394.7z"/>
	</g>
	<g>
		<path class="st5" d="M506.3,399.9c0,0,0,0-0.1,0l-11.6-1.3c-0.5,0-0.8-0.5-0.8-0.9c0-0.5,0.5-0.8,0.9-0.8l11.6,1.3
			c0.5,0,0.8,0.5,0.8,0.9C507.1,399.5,506.7,399.9,506.3,399.9z"/>
	</g>
	<g>
		<path class="st5" d="M381.6,409.4c-0.3,0-0.6-0.2-0.7-0.5l-3.5-8.9c-0.1-0.4,0-0.8,0.4-1c0.4-0.1,0.8,0,0.9,0.5l3.5,8.9
			c0.1,0.4,0,0.8-0.4,0.9C381.8,409.4,381.7,409.4,381.6,409.4z"/>
	</g>
	<g>
		<path class="st5" d="M497.2,416.2c-0.4,0-0.6-0.2-0.8-0.5l-3.9-9.9c-0.1-0.5,0-0.9,0.5-1.1c0.5-0.1,0.9,0,1.1,0.5l3.9,9.9
			c0.1,0.5,0,0.9-0.5,1.1C497.4,416.2,497.3,416.2,497.2,416.2z"/>
	</g>
	<g>
		<path class="st5" d="M373.8,414L373.8,414c-0.5,0-0.8-0.4-0.8-0.7l0.4-12.4c0-0.4,0.4-0.8,0.8-0.8s0.8,0.4,0.8,0.8l-0.4,12.4
			C374.6,413.7,374.2,414,373.8,414z"/>
	</g>
	<g>
		<path class="st5" d="M488.6,421.4L488.6,421.4c-0.5,0-0.9-0.4-0.9-0.9l0.5-13.8c0-0.5,0.4-0.8,0.9-0.8s0.8,0.4,0.8,0.9l-0.5,13.8
			C489.4,421.1,489,421.4,488.6,421.4z"/>
	</g>
	<g>
		<path class="st5" d="M364.9,405.1c-0.1,0-0.3,0-0.4-0.1c-0.4-0.2-0.5-0.6-0.3-1l4.6-7.7c0.2-0.4,0.6-0.5,1-0.3
			c0.4,0.2,0.5,0.6,0.3,1l-4.6,7.7C365.4,405,365.2,405.1,364.9,405.1z"/>
	</g>
	<g>
		<path class="st5" d="M478.7,411.5c-0.1,0-0.3,0-0.4-0.1c-0.4-0.3-0.5-0.8-0.3-1.1l5.1-8.6c0.3-0.4,0.8-0.5,1.1-0.3
			c0.4,0.3,0.5,0.8,0.3,1.1l-5.1,8.6C479.2,411.3,479,411.5,478.7,411.5z"/>
	</g>
	<g>
		<path class="st5" d="M371.1,389.3c-0.2,0-0.4,0-0.5-0.2l-7.3-6.9c-0.3-0.3-0.3-0.8-0.1-1c0.3-0.3,0.8-0.3,1,0l7.3,6.9
			c0.3,0.3,0.3,0.8,0,1C371.5,389.2,371.3,389.3,371.1,389.3z"/>
	</g>
	<g>
		<path class="st5" d="M485.6,393.8c-0.2,0-0.4-0.1-0.5-0.3l-8.2-7.7c-0.4-0.3-0.4-0.9-0.1-1.2c0.3-0.3,0.9-0.3,1.2,0l8.2,7.7
			c0.4,0.3,0.4,0.9,0,1.2C486,393.7,485.8,393.8,485.6,393.8z"/>
	</g>
	<g>
		<path vector-effect="non-scaling-stroke" class="st8" d="M506.5,346.8l22.8,22c20.1-8.9,47.5-11.8,82.3-8.6
			c2.8,0.3-3.6-5.3-19.4-16.8L506.5,346.8z"/>
		<path class="st5" d="M529.3,369.7c-0.2,0-0.4-0.1-0.6-0.3l-22.8-22c-0.3-0.3-0.3-0.6-0.2-0.9s0.4-0.5,0.8-0.5l85.8-3.4
			c0.2,0,0.3,0.1,0.5,0.1c21.1,15.4,20.7,16.6,20.3,17.6c-0.1,0.3-0.5,0.8-1.5,0.7c-34.4-3.1-62-0.3-81.9,8.5
			C529.6,369.6,529.5,369.7,529.3,369.7z M508.5,347.6l21,20.2c20-8.7,47.4-11.5,81.5-8.5c-1.3-1.4-5.4-5.2-19-15L508.5,347.6z"/>
	</g>
	<g>
		<path class="st5" d="M538.8,392.9c-0.3,0-0.5,0-0.7-0.1c-0.9-0.4-1.2-1.4-0.8-2.2l9.8-20.8c0.4-0.9,1.4-1.2,2.2-0.8
			c0.8,0.4,1.2,1.4,0.8,2.2l-9.8,20.8C540.1,392.6,539.5,392.9,538.8,392.9z"/>
	</g>
	<g>
		<path class="st5" d="M552.2,389.5c-0.5,0-0.9-0.1-1.2-0.5L535,372.6c-0.7-0.6-0.7-1.7,0-2.4c0.6-0.6,1.7-0.6,2.3,0l15.9,16.4
			c0.7,0.6,0.7,1.7,0,2.4C553,389.3,552.6,389.5,552.2,389.5z"/>
	</g>
	<g>
		<path class="st5" d="M606.3,385.2c-0.3,0-0.5,0-0.8-0.2c-0.9-0.4-1.2-1.4-0.8-2.2l8.2-16.4c0.4-0.9,1.4-1.1,2.3-0.8
			c0.8,0.4,1.1,1.4,0.8,2.3l-8.2,16.4C607.5,384.9,606.9,385.2,606.3,385.2z"/>
	</g>
	<g>
		<path class="st5" d="M618.4,386.1c-0.5,0-0.9-0.2-1.3-0.5l-15.5-16.8c-0.7-0.7-0.6-1.8,0.1-2.4c0.7-0.6,1.8-0.6,2.3,0.1l15.5,16.8
			c0.6,0.7,0.6,1.7-0.1,2.3C619.2,386,618.8,386.1,618.4,386.1z"/>
	</g>
	<g>
		<path class="st5" d="M541.8,404.2c-0.5,0-0.8-0.4-0.8-0.8c0-0.5,0.3-0.9,0.8-0.9l82.3-2.6c0,0,0,0,0,0c0.5,0,0.8,0.4,0.8,0.8
			c0,0.5-0.3,0.9-0.8,0.9L541.8,404.2C541.9,404.2,541.9,404.2,541.8,404.2z"/>
	</g>
	<g>
		<path vector-effect="non-scaling-stroke" class="st0" d="M442.7,343.5c0.5-26.6,2.1-42.7,4.7-48.1c-16.7-0.5-29.7,13.8-39.2,42.8
			C416.2,341.6,427.7,343.3,442.7,343.5z"/>
		<path class="st5" d="M442.7,344.3L442.7,344.3c-15.1-0.1-26.8-1.9-34.8-5.3c-0.4-0.1-0.6-0.6-0.5-1.1c9.5-29.3,23-43.9,40-43.4
			c0.3,0,0.6,0.1,0.7,0.4s0.1,0.5,0,0.8c-2.6,5.3-4.1,21.4-4.7,47.8C443.5,343.9,443.2,344.3,442.7,344.3z M409.3,337.7
			c7.6,3.1,18.5,4.7,32.6,4.9c0.5-24.8,1.9-40,4.3-46.4C430.7,296.4,418.3,310.4,409.3,337.7z"/>
	</g>
	<g>
		<path vector-effect="non-scaling-stroke" class="st0" d="M469,343.8h-21.5c0.6-29.8,2.4-45.9,5.6-48.2c18.5-3.7,28.7,7.3,30.8,33
			l1.7,14.8L469,343.8z"/>
		<path class="st5" d="M469,344.7h-21.5c-0.2,0-0.5-0.1-0.6-0.3s-0.3-0.4-0.3-0.6c0.8-40.5,3.7-47.3,5.9-48.9c0.1,0,0.2-0.1,0.4-0.1
			c8-1.6,14.6-0.5,19.7,3.3c6.8,5.1,10.9,15.4,12.1,30.4l1.7,14.7c0,0.3,0,0.5-0.2,0.6s-0.4,0.3-0.6,0.3L469,344.7L469,344.7z
			 M448.3,343H469l15.6-0.4l-1.6-13.8c-1.1-14.5-5-24.4-11.4-29.2c-4.6-3.5-10.7-4.5-18.1-3C451.4,298.1,449,307.8,448.3,343z"/>
	</g>
	<g>
		<path vector-effect="non-scaling-stroke" class="st0" d="M490.3,340.8c-3-27-6-41.7-9.2-44c26.7-9.7,48.9-10.7,66.7-3l21.1,45.7
			L490.3,340.8z"/>
		<path class="st5" d="M490.3,341.6c-0.5,0-0.8-0.3-0.9-0.7c-3.6-33.2-6.8-41.9-8.8-43.4c-0.3-0.2-0.4-0.5-0.4-0.8
			c0-0.3,0.3-0.5,0.5-0.6c26.8-9.7,49.4-10.7,67.3-3c0.2,0.1,0.3,0.3,0.5,0.4l21.1,45.7c0.1,0.3,0.1,0.5,0,0.8
			c-0.1,0.3-0.4,0.4-0.7,0.4L490.3,341.6C490.4,341.6,490.3,341.6,490.3,341.6z M482.6,297.2c2.1,2.9,5,11.9,8.4,42.7l76.6-1.2
			l-20.4-44.2C530.1,287.1,508.4,288.1,482.6,297.2z"/>
	</g>
	<g>
		<path vector-effect="non-scaling-stroke" class="st6" d="M506.9,346.8l12.5-50c43.7-6.3,72.5-6,86.6,0.9l-14.2,45.7L506.9,346.8z"
			/>
		<g>
			<path class="st0" d="M513.3,321.3c25,18.4,52.8,19.9,83.1,4.6l-5.2,17.5l-84,3.1L513.3,321.3z"/>
		</g>
		<path class="st5" d="M506.9,347.7c-0.3,0-0.5-0.1-0.6-0.3c-0.1-0.2-0.3-0.4-0.1-0.8l12.5-50c0.1-0.4,0.4-0.6,0.7-0.6
			c43.6-6.3,72.9-6,87.1,0.9c0.3,0.2,0.5,0.6,0.5,1l-14.2,45.7c-0.1,0.4-0.4,0.5-0.8,0.6L506.9,347.7L506.9,347.7z M520.1,297.6
			L508,346l83.2-3.4l13.8-44.4C591,291.7,562.4,291.5,520.1,297.6z"/>
	</g>
	<g>
		<path class="st5" d="M484.9,362.8c-0.5,0-0.8-0.4-0.9-0.8l-0.9-15.1c0-0.4,0.4-0.8,0.8-0.9c0.5,0,0.9,0.3,0.9,0.8l0.9,15.1
			C485.8,362.4,485.4,362.7,484.9,362.8C485,362.8,484.9,362.8,484.9,362.8z"/>
	</g>
	<g>
		<path class="st5" d="M436.5,416.7c-0.4,0-0.6-0.2-0.8-0.5c-4-10.4-3.3-32,2.1-64.2c0.1-0.4,0.5-0.8,0.9-0.7
			c0.4,0.1,0.8,0.5,0.7,0.9c-5.4,31.9-6.1,53.2-2.2,63.3c0.1,0.5,0,0.9-0.5,1.1C436.7,416.6,436.6,416.7,436.5,416.7z"/>
	</g>
	<g>
		<path class="st5" d="M406.5,370.1c-0.3,0-0.6-0.1-0.7-0.4c-1-1.6-2.1-5.9-0.1-25.1c0.1-0.5,0.5-0.8,0.9-0.8c0.4,0,0.8,0.4,0.8,0.9
			c-1.8,17.2-1,22.6-0.1,24c0.3,0.4,0.1,0.9-0.3,1.1C406.8,370.1,406.6,370.1,406.5,370.1z"/>
	</g>
	<g>
		<path class="st5" d="M371.6,332C371.6,332,371.5,332,371.6,332l-19.8-0.2c-0.4,0-0.8-0.4-0.8-0.8l-0.4-9.9c0-0.3,0.1-0.4,0.3-0.6
			c0.1-0.1,0.4-0.3,0.6-0.3l20.2,0.5c0.5,0,0.8,0.4,0.8,0.9v9.7c0,0.2-0.1,0.4-0.3,0.6C372,331.9,371.8,332,371.6,332z M352.5,330.1
			l18.2,0.2v-8l-18.5-0.4L352.5,330.1z"/>
	</g>
	<g>
		<path class="st5" d="M371.7,332c-0.2,0-0.4,0-0.6-0.2c-0.1-0.1-0.3-0.4-0.3-0.6l-0.4-9.8c0-0.3,0-0.4,0.2-0.6
			c0.1-0.1,0.4-0.3,0.6-0.3l35.6-0.3c0.4,0,0.6,0.2,0.8,0.4c0.1,0.3,0.1,0.6-0.1,0.9l-5.3,7.1c-0.1,0.2-0.4,0.3-0.6,0.4L371.7,332
			C371.8,332,371.7,332,371.7,332z M372.1,322.1l0.4,8.1l28.6-2.9l4.1-5.4L372.1,322.1z"/>
	</g>
	<g>
		<path class="st5" d="M368.4,345c-0.3,0-0.6-0.2-0.8-0.5l-4.8-12.9c-0.1-0.3,0-0.5,0.1-0.8c0.1-0.2,0.4-0.4,0.6-0.4l6.8-0.5
			c0.3,0,0.6,0.1,0.8,0.5l5.2,11.3c0.1,0.2,0.1,0.5,0,0.7c-0.1,0.2-0.3,0.4-0.5,0.5c-1.5,0.4-3.9,1.1-7.1,2
			C368.5,345,368.4,345,368.4,345z M364.7,332l4.2,11.1c2.3-0.6,4.1-1.1,5.5-1.5l-4.5-9.9L364.7,332z"/>
	</g>
	<g>
		<path class="st5" d="M448.3,373.4c-4,0-6.5-0.9-7.8-2.6c-1-1.4-1-3.3,0-5.7l0.1-0.5l0.4-0.1c8.7-1.6,14.2-0.6,16.7,3l0.1,0.1
			c0.6,1.4,0.6,2.5-0.1,3.4c-1.1,1.6-3.8,2.4-8.7,2.3C448.9,373.4,448.6,373.4,448.3,373.4z M441.9,366.1c-0.6,1.6-0.5,2.9,0.1,3.8
			c0.9,1.3,3.4,2,7.3,1.8c5.4,0.1,6.9-0.9,7.3-1.5c0.1-0.1,0.4-0.6-0.1-1.7C454.3,365.6,449.4,364.8,441.9,366.1z"/>
	</g>
	<g>
		<path class="st5" d="M416.4,328.4c-0.1,0-0.2,0-0.3-0.1c-0.5-0.2-0.6-0.6-0.5-1.1l3.2-7.8c0.2-0.5,0.6-0.6,1.1-0.5
			c0.5,0.2,0.6,0.6,0.5,1.1l-3.3,7.8C417.1,328.2,416.8,328.4,416.4,328.4z"/>
	</g>
	<g>
		<path class="st5" d="M426.6,311.9c-0.1,0-0.3-0.1-0.4-0.1c-0.4-0.3-0.5-0.8-0.3-1.1c3.4-6,7.5-9.6,12-10.5c0.4-0.1,0.9,0.2,1,0.6
			c0.1,0.5-0.2,0.9-0.6,1c-4,0.9-7.7,4.1-10.9,9.7C427.2,311.7,426.9,311.9,426.6,311.9z"/>
	</g>
	<g>
		<path class="st5" d="M453,334.1c-0.4,0-0.8-0.4-0.8-0.9v-9.7c0-0.5,0.3-0.9,0.8-0.9s0.9,0.4,0.9,0.9v9.7
			C453.9,333.8,453.5,334.1,453,334.1z"/>
	</g>
	<g>
		<path class="st5" d="M453.3,316.3c0,0,0,0-0.1,0c-0.4,0-0.8-0.4-0.8-0.9l1.1-10.8c0.1-0.4,0.5-0.8,0.9-0.8
			c0.4,0.1,0.8,0.5,0.8,0.9l-1.1,10.8C454,316,453.7,316.3,453.3,316.3z"/>
	</g>
	<g>
		<path class="st5" d="M496.6,323.7c-0.4,0-0.7-0.3-0.8-0.6l-2.2-7c-0.1-0.4,0.1-0.9,0.5-1c0.5-0.1,0.9,0.1,1,0.5l2.2,7
			c0.1,0.5-0.1,0.9-0.5,1.1C496.7,323.7,496.6,323.7,496.6,323.7z"/>
	</g>
	<g>
		<path class="st5" d="M492.2,308.5c-0.3,0-0.5-0.1-0.6-0.3c-2.3-2.6-3.1-5-2.4-7.1c0.9-2.8,4.4-4.8,10.6-6.1c0.5-0.1,0.9,0.2,1,0.6
			s-0.2,0.9-0.6,1c-5.4,1.2-8.7,2.9-9.4,5c-0.5,1.5,0.2,3.3,2.1,5.5c0.3,0.4,0.3,0.9-0.1,1.2C492.5,308.5,492.3,308.5,492.2,308.5z"
			/>
	</g>
	<g>
		<path class="st0" d="M566.4,403.2c15.4,10.7,25.8,10.4,31-0.9L566.4,403.2z"/>
	</g>
	<g>
		<path vector-effect="non-scaling-stroke" class="st6" d="M597.8,401.5c2.3,8.1,8.4,16.2,18.2,24.2c14.6,12-16.8,15.9-34,4.3
			c-9.3-7.5-14.6-16.7-16.1-27.6L597.8,401.5z"/>
		<path class="st5" d="M606.5,437.9c-0.9,0-1.9,0-2.8-0.1c-8.2-0.5-16.3-3-22.2-7l0,0c-9.4-7.6-14.9-17.1-16.4-28.2
			c0-0.3,0-0.5,0.2-0.6c0.1-0.2,0.4-0.3,0.6-0.3l31.9-0.9c0.4,0,0.7,0.3,0.9,0.6c2.3,7.9,8.3,15.9,17.9,23.8
			c5.3,4.3,4.3,7.4,3.2,8.8C617.9,436.4,612.9,437.9,606.5,437.9z M582.4,429.4c12.5,8.4,32.4,8.3,36,3.5c1.5-2.1-0.8-4.7-3-6.5
			c-9.6-7.9-15.7-16-18.3-24l-30.4,0.9C568.4,413.5,573.6,422.3,582.4,429.4z"/>
	</g>
	<g>
		<path class="st5" d="M599.4,423.9c-0.1,0-0.2,0-0.3,0c-8-3.1-13.1-10.1-15.1-20.6c-0.1-0.5,0.2-0.9,0.6-1c0.5-0.1,0.9,0.2,1,0.6
			c1.9,9.9,6.6,16.5,14.1,19.4c0.5,0.1,0.7,0.6,0.5,1.1C600,423.7,599.7,423.9,599.4,423.9z"/>
	</g>
	<g>
		<path class="st5" d="M540.8,355.6c0,0-0.1,0-0.2,0c-0.5-0.1-0.8-0.5-0.6-1l4.4-23.4c0-0.3,0.2-0.5,0.5-0.6
			c6.4-3.2,9.7-6.4,10.1-9.5c0.3-2.3-1.3-4.8-4.6-7.4c-0.3-0.2-0.3-0.5-0.3-0.8c0-0.3,0.3-0.5,0.5-0.6c6.7-2.1,10.5-4.9,11.4-8.4
			c0.9-3.5-1.2-7.9-6.2-13c-0.2-0.2-0.3-0.5-0.2-0.8c0-0.3,0.3-0.5,0.5-0.6c5.8-1.8,9-4,9.4-6.2c0.3-2-1.6-4.5-5.7-7.3
			c-0.2-0.1-0.3-0.4-0.3-0.6c0-0.3,0-0.5,0.2-0.6c6.3-6.9,9-12.8,8-17.7c-0.9-4.1-4.6-7.7-11-10.5c-0.4-0.2-0.6-0.7-0.5-1.1
			c0.2-0.4,0.7-0.6,1.1-0.4c7,3,11,7,12,11.7c1.1,5.2-1.5,11.4-7.7,18.4c4.2,3,6,5.7,5.6,8.3c-0.4,2.8-3.5,5.2-9.3,7.2
			c4.7,5.2,6.6,9.8,5.7,13.6c-1,3.8-4.7,6.8-11,9.1c3,2.6,4.3,5.3,4.1,7.9c-0.3,3.7-3.8,7.2-10.6,10.7l-4.4,23
			C541.5,355.4,541.2,355.6,540.8,355.6z"/>
	</g>
	<g>
		<path class="st5" d="M536.3,343.9c0,0-0.1,0-0.1,0c-0.5-0.1-0.8-0.5-0.7-0.9l5-27.4c-3.5-3.4-4.8-6.2-4-8.6
			c0.8-2.8,4.3-4.6,10.5-5.7c-3.5-9.9-4.3-16.3-2.1-19.5c0.6-0.9,1.3-1.5,2.3-1.9c-6.7-4.8-9.6-8.8-8.9-12.1
			c0.8-3.5,5.6-5.9,14.7-7.2c0.5-0.1,0.9,0.3,1,0.7c0,0.5-0.3,0.9-0.7,1c-10.2,1.5-12.9,4.1-13.3,5.9c-0.5,1.9,0.9,5.4,9.8,11.4
			c0.3,0.2,0.5,0.5,0.3,0.9c-0.1,0.3-0.4,0.6-0.8,0.6c-1.4,0.1-2.4,0.6-3,1.6c-1.2,1.9-1.8,6.8,2.7,19c0.1,0.3,0,0.5,0,0.7
			c-0.1,0.2-0.3,0.4-0.6,0.4c-6,0.9-9.4,2.5-10.1,4.7c-0.5,1.8,0.8,4.2,3.9,7.2c0.2,0.2,0.3,0.5,0.3,0.7l-5,27.8
			C537.1,343.7,536.7,343.9,536.3,343.9z"/>
	</g>
	<g>
		<path class="st5" d="M573.6,351.2c0,0-0.1,0-0.2,0c-0.5-0.1-0.8-0.5-0.6-1l4.3-21.3c-4.1-4.7-5.7-9.1-4.8-13.2
			c1.2-5.1,6.3-9.6,15.3-13.3c7-4.9,8-12.4,3-22.8c-1.2-2.4-1.4-4.7-0.5-6.9c1.4-3.2,4.8-5.9,10.8-8.2c-7.6-6.2-10.1-12.2-7.4-17.9
			c0.2-0.4,0.7-0.6,1.1-0.4c0.4,0.2,0.6,0.7,0.4,1.1c-2.4,5.1,0.3,10.8,8.1,16.8c0.3,0.2,0.3,0.5,0.3,0.8c0,0.3-0.3,0.6-0.5,0.6
			c-6.3,2.2-10,4.8-11.1,7.8c-0.7,1.7-0.5,3.5,0.5,5.5c5.4,11.1,4.1,19.5-3.6,25c0,0.1-0.1,0.1-0.1,0.1c-8.5,3.6-13.4,7.7-14.4,12.2
			c-0.8,3.6,0.8,7.6,4.7,12c0.2,0.2,0.3,0.4,0.2,0.7l-4.4,21.7C574.4,350.9,574,351.2,573.6,351.2z"/>
	</g>
	<g>
		<path class="st5" d="M587,350.1c0,0-0.1,0-0.2,0c-0.5-0.1-0.8-0.6-0.7-1l3.9-17.2c0-0.2,0.2-0.4,0.4-0.5c0.2-0.1,0.5-0.1,0.6-0.1
			c12.2,3.2,20.3-0.4,24.6-11.2c0.1-0.3,0.4-0.4,0.6-0.5c4.8-1,8.1-2.9,9.6-5.8c1.7-3.1,1.4-7.5-0.8-13.1c-0.5-1.6,0.9-2.7,2.9-4.2
			c4.3-3.2,12.1-9.2,12.1-26.2c0-0.4,0.3-0.8,0.8-0.8s0.9,0.3,0.9,0.8c0,17.7-8.3,24.1-12.7,27.5c-1.2,0.9-2.5,1.9-2.3,2.3
			c2.4,6,2.6,10.8,0.7,14.4c-1.8,3.2-5.2,5.4-10.3,6.6c-4.5,11-13.1,15-25.6,12l-3.7,16.4C587.7,349.8,587.4,350.1,587,350.1z"/>
	</g>
	<g>
		<path class="st5" d="M583.9,333.2c0,0,0,0-0.1,0c-0.5,0-0.8-0.4-0.8-0.9c1.4-12.4,10.8-14,14.8-14.6c0.6-0.1,1.3-0.3,1.5-0.4
			c0.1-0.1,0.2-0.1,0.3-0.1c4.5-0.9,7.5-2.6,8.6-5.2c1.5-3.3,0.5-8.1-3.2-14.4c0-0.1,0-0.1,0-0.1c-1.3-3.8-1.1-6.9,0.3-9.4
			c2.4-4.1,7.6-5.3,10.5-5.9c0.6-0.1,1.2-0.3,1.4-0.4c2.4-1.3,3.7-2.6,3.7-4c0-1.4-1.3-4-7.5-7.6c-0.3-0.1-0.4-0.4-0.4-0.6
			c0-0.3,0.1-0.5,0.3-0.7c5.8-4.6,8.6-8.9,8.1-12.9c-0.5-4.4-5-8.7-13.4-12.6c-0.4-0.2-0.6-0.7-0.4-1.1c0.2-0.4,0.7-0.6,1.1-0.4
			c9.1,4.3,13.8,8.8,14.4,13.9c0.5,4.3-2.1,8.9-7.8,13.6c5,3,7.4,5.8,7.3,8.5c0,2.1-1.6,3.9-4.7,5.5h0c-0.4,0.1-0.9,0.3-1.7,0.4
			c-2.5,0.4-7.3,1.5-9.3,5c-1.1,2-1.2,4.7-0.1,7.9c3.9,6.8,4.9,12,3.2,15.8c-1.4,3.1-4.7,5.2-9.7,6.1c-0.5,0.3-1,0.4-2.1,0.5
			c-4,0.6-12.2,2-13.5,13.2C584.7,332.9,584.4,333.2,583.9,333.2z"/>
	</g>
	<g>
		<path vector-effect="non-scaling-stroke" class="st0" d="M410.4,198.8l17.2,1.1c-1.8-9.6,1.3-11.1,9.4-4.4
			c-1.1-13,2.9-15.4,12.2-7.2c6.7-4.8,10.4-2.8,11.1,6.1l21.7-1.1"/>
		<path class="st5" d="M427.7,200.8L427.7,200.8l-17.3-1.1c-0.5-0.1-0.8-0.4-0.8-0.9c0.1-0.4,0.4-0.8,0.9-0.8l16.2,1
			c-0.8-4.5-0.3-7.1,1.4-8.1c1.7-1,4.3-0.1,8.1,2.7c-0.3-5.9,0.7-9.4,3-10.6c2.3-1.2,5.7,0.1,10.3,4.1c3.2-2.2,5.8-2.8,7.8-1.9
			c2.2,1,3.5,3.7,4,8.2l20.9-1.1c0.5,0,0.9,0.3,0.9,0.8c0,0.4-0.4,0.8-0.8,0.9l-21.7,1.1c-0.5,0-0.9-0.3-0.9-0.8
			c-0.4-4.3-1.4-6.8-3.1-7.6c-1.6-0.7-3.8,0-6.7,2.1c-0.3,0.3-0.8,0.2-1-0.1c-5.2-4.6-7.7-4.9-8.9-4.3c-1.3,0.7-2.6,3-1.9,10.8
			c0,0.4-0.1,0.6-0.4,0.8c-0.3,0.1-0.6,0.1-0.9-0.1c-5.3-4.3-7.1-4-7.7-3.7c-0.5,0.3-1.5,1.6-0.4,7.4c0,0.3,0,0.5-0.2,0.7
			C428.1,200.7,427.9,200.8,427.7,200.8z"/>
	</g>
	<g>
		<path vector-effect="non-scaling-stroke" class="st0" d="M418.5,103l17.2,1.1c-1.8-9.6,1.3-11.1,9.4-4.4
			c-1.1-13,2.9-15.4,12.2-7.2c6.7-4.8,10.4-2.8,11.1,6.1l21.7-1.1"/>
		<path class="st5" d="M435.7,104.9L435.7,104.9l-17.3-1.1c-0.5-0.1-0.8-0.4-0.8-0.9c0.1-0.4,0.5-0.8,0.9-0.8l16.2,1
			c-0.8-4.5-0.3-7.1,1.4-8.1s4.3-0.2,8.1,2.7c-0.3-5.9,0.7-9.4,3-10.6c2.3-1.2,5.7,0.1,10.3,4.1c3.2-2.2,5.8-2.8,7.8-1.9
			c2.2,1,3.5,3.7,4,8.2l20.9-1c0.4,0,0.8,0.3,0.9,0.8c0,0.4-0.4,0.8-0.8,0.9l-21.7,1.1c-0.4,0-0.9-0.3-0.9-0.8
			c-0.4-4.3-1.4-6.8-3.1-7.6c-1.5-0.7-3.8,0-6.7,2.1c-0.3,0.3-0.8,0.2-1,0c-5.2-4.6-7.7-4.9-8.9-4.3c-1.2,0.6-2.6,3-1.9,10.8
			c0.1,0.3-0.1,0.6-0.4,0.8c-0.3,0.2-0.6,0.1-0.9-0.1c-5.3-4.3-7.1-4-7.7-3.7c-0.5,0.3-1.5,1.6-0.4,7.4c0.1,0.2,0,0.5-0.2,0.7
			C436.2,104.8,436,104.9,435.7,104.9z"/>
	</g>
	<g>
		<path vector-effect="non-scaling-stroke" class="st0" d="M503.2,143.9h19.5c1.8-15.6,11.7-18.5,29.5-8.9
			c-5.9-20.4,0.2-27.3,18.4-20.6c1-9.6,7-13.4,17.7-11.1c4.5,3.7,5,9.8,1.6,18.4c14.1-4.4,20.8,1.6,20,18.4H638"/>
		<path class="st5" d="M522.7,144.8h-19.5c-0.5,0-0.9-0.4-0.9-0.9c0-0.5,0.4-0.8,0.9-0.8h18.7c1-6.6,3.4-11,7.3-13.1
			c5-2.6,12-1.5,21.6,3.4c-2.6-10-2.3-16.5,1.3-19.9c3.4-3.1,9.1-3.2,17.7-0.2c0.6-4.2,2.3-7.3,4.9-9.2c3.2-2.3,7.8-2.8,13.7-1.6
			c0.1,0.1,0.3,0.1,0.3,0.2c4.5,3.7,5.3,9.7,2.5,17.7c6.1-1.6,10.8-1.2,14.1,1.3c3.8,2.9,5.7,8.8,5.4,17.5h27c0.5,0,0.9,0.3,0.9,0.8
			s-0.4,0.8-0.9,0.8h-27.9c-0.3,0-0.5-0.1-0.6-0.2c-0.1-0.2-0.3-0.4-0.3-0.6c0.4-8.5-1.2-14.2-4.7-16.9c-3.1-2.4-7.9-2.6-14.2-0.6
			c-0.3,0.1-0.6,0-0.8-0.2c-0.2-0.3-0.3-0.6-0.2-0.9c3.2-8,2.7-13.8-1.2-17.3c-5.3-1-9.4-0.6-12.2,1.4c-2.5,1.7-3.9,4.8-4.4,9.1
			c0,0.3-0.2,0.5-0.4,0.6c-0.2,0.1-0.5,0.1-0.8,0c-8.3-3-14-3.2-16.9-0.5c-3.2,3-3.3,9.8-0.3,20.1c0.1,0.3,0,0.7-0.3,0.9
			c-0.3,0.2-0.7,0.2-0.9,0.1c-9.7-5.3-17-6.7-21.7-4.3c-3.6,1.7-5.8,5.9-6.6,12.4C523.4,144.5,523.1,144.8,522.7,144.8z"/>
	</g>
	<g>
		<path vector-effect="non-scaling-stroke" class="st0" d="M653,181.5l22.1,0.3c-0.3-10.2,3.8-14,12.4-11.4
			c4.8-14.5,10.6-17.1,17.2-7.8c3.9-17.9,9.9-19.9,18.3-5.9c7.9-3,11.1,1.3,9.6,13.2h34"/>
		<path class="st5" d="M675.2,182.7L675.2,182.7l-22.1-0.3c-0.5,0-0.9-0.4-0.8-0.8c0-0.4,0.4-0.8,0.8-0.8l0,0l21.3,0.3
			c0-5.2,1.2-8.8,3.6-10.7c2.2-1.6,5.2-1.9,9-0.9c2.9-8.2,6-12.5,9.6-13c2.5-0.4,5,1,7.7,4.2c2.1-8.8,4.8-13.3,8.3-13.9
			c3.3-0.6,6.7,2.3,10.7,8.9c3.3-1.1,5.8-1,7.5,0.4c2.5,1.9,3.4,6.2,2.6,13h33c0.4,0,0.8,0.4,0.8,0.8c0,0.5-0.3,0.9-0.8,0.9h-34
			c-0.3,0-0.5-0.1-0.6-0.3c-0.2-0.2-0.3-0.4-0.2-0.7c0.8-6.6,0.2-10.8-1.9-12.4c-1.4-1.1-3.6-1-6.6,0.1c-0.4,0.2-0.8,0-1-0.3
			c-3.6-6.1-6.9-9.1-9.4-8.7c-2,0.3-4.9,3.1-7.3,14.4c0,0.3-0.3,0.6-0.7,0.7c-0.3,0.1-0.6-0.1-0.8-0.4c-2.6-3.6-5-5.3-7.2-5
			c-3,0.4-5.9,4.8-8.5,12.6c-0.2,0.4-0.6,0.6-1,0.5c-3.7-1.1-6.5-1-8.3,0.4c-2.2,1.6-3.2,5-3,10.2c0,0.3-0.1,0.4-0.3,0.6
			C675.6,182.6,675.4,182.7,675.2,182.7z"/>
	</g>
	<g id="Group_1_">
		<g>
			<path class="st2" d="M810.7,287c-0.8,0-1.6-0.1-2.3-0.3l-0.4-0.1l0.2-0.8l0.4,0.1c3,0.7,6-0.1,9.2-2.5l0.3-0.3l0.5,0.6l-0.3,0.3
				C815.7,286,813.2,287,810.7,287z"/>
		</g>
		<g>
			<path class="st2" d="M812.3,290.2c-1.7,0-3.2-0.3-4.5-0.7l-0.4-0.1l0.3-0.8l0.4,0.1c3,1,6.7,0.9,10.8-0.4l0.4-0.1l0.3,0.8
				l-0.4,0.1C816.7,289.8,814.4,290.2,812.3,290.2z"/>
		</g>
	</g>
</g>
</svg>
