<?xml version="1.0" encoding="utf-8"?>
<!-- Generator: Adobe Illustrator 19.0.0, SVG Export Plug-In . SVG Version: 6.00 Build 0)  -->
<svg version="1.1" id="Capa_1" xmlns="http://www.w3.org/2000/svg" xmlns:xlink="http://www.w3.org/1999/xlink" x="0px" y="0px"
	 width="100px" height="100px" viewBox="-205 347 100 100" style="enable-background:new -205 347 100 100;" xml:space="preserve">
<style type="text/css">
	.st0{clip-path:url(#SVGID_2_);}
	.st1{fill:#FF9E94;}
	.st2{fill:none;stroke:#FF5D4D;stroke-width:3.8307;stroke-linecap:square;stroke-miterlimit:3;}
	.st3{fill:#FFFFFF;stroke:#D51B1A;stroke-width:1.5067;stroke-linecap:round;stroke-linejoin:round;stroke-miterlimit:3;}
	.st4{fill:none;stroke:#D51B1A;stroke-width:1.5067;stroke-linecap:square;stroke-miterlimit:3;}
</style>
<g>
	<defs>
		<rect id="SVGID_1_" x="-205" y="347" width="100" height="100"/>
	</defs>
	<clipPath id="SVGID_2_">
		<use xlink:href="#SVGID_1_"  style="overflow:visible;"/>
	</clipPath>
	<g class="st0">
		<g id="Me_gusta">
			<g id="Group">
				<path class="st1" d="M-178.7,401.6c18.4,0.2,27.3-9,26.8-27.5l-2.9-17.2c8.3-4.9,14.4-0.7,18.2,12.7c0.3,7.8,0.3,13.3,0,16.3
					c11.4-2.9,18.1-3.1,19.9-0.5c8.1,11.5,13.6,35.7-4.3,52.2c-14.2,3.7-29.2,1.1-45-7.7c-5.7-0.5-9.8-0.2-12.2,0.7
					C-184.5,420.9-184.6,411.2-178.7,401.6z"/>
				<path vector-effect="non-scaling-stroke" class="st2" d="M-134.3,399.3c10.8,1.3,18.7,1.1,23.8-0.8"/>
				<path vector-effect="non-scaling-stroke" class="st2" d="M-134.6,412.7c12.3,1.6,20.8,1.7,25.6,0.5"/>
				<path vector-effect="non-scaling-stroke" class="st2" d="M-138,426.3c12.3,1.6,20.8,1.7,25.6,0.5"/>
			</g>
			<path vector-effect="non-scaling-stroke" class="st3" d="M-199.2,399l24.4-0.8c-6.5,14.4-5.9,26.4,1.8,36
				c-0.6-0.4-8.2-1.2-22.9-2.5C-201.3,421-202.4,410.1-199.2,399z"/>
			<path vector-effect="non-scaling-stroke" class="st4" d="M-195,408.4c0-2.1,1.7-3.8,3.8-3.8c2.1,0,3.8,1.7,3.8,3.8
				c0,2.1-1.7,3.8-3.8,3.8C-193.3,412.1-195,410.4-195,408.4z"/>
		</g>
	</g>
</g>
</svg>
