<?xml version="1.0" encoding="utf-8"?>
<!-- Generator: Adobe Illustrator 19.0.0, SVG Export Plug-In . SVG Version: 6.00 Build 0)  -->
<svg version="1.1" id="Capa_1" xmlns="http://www.w3.org/2000/svg" xmlns:xlink="http://www.w3.org/1999/xlink" x="0px" y="0px"
	 width="100px" height="100px" viewBox="-205 347 100 100" style="enable-background:new -205 347 100 100;" xml:space="preserve">
<style type="text/css">
	.st0{clip-path:url(#SVGID_2_);}
	.st1{fill:#F8D0D2;}
	.st2{fill:none;stroke:#D51B1A;stroke-width:1.1347;stroke-linecap:square;stroke-miterlimit:3;}
	.st3{fill:none;stroke:#D51B1A;stroke-width:1.1347;stroke-linecap:round;stroke-linejoin:round;stroke-miterlimit:3;}
</style>
<g>
	<defs>
		<rect id="SVGID_1_" x="-205" y="347" width="100" height="100"/>
	</defs>
	<clipPath id="SVGID_2_">
		<use xlink:href="#SVGID_1_"  style="overflow:visible;"/>
	</clipPath>
	<g class="st0">
		<g id="Msj">
			<path class="st1" d="M-109.9,407.6l-0.7-21c-0.1-2.2-1.9-4-4.1-3.9l-35.7,0.7v2c0,0.1,0,0.2,0,0.3c0,0.1,0,0.2,0,0.3v0.7l0,0
				c-0.4,1.6-1.7,2.9-3.3,2.9c-1.6,0-2.9-1.2-3.2-2.9l0,0l-0.1-0.7c0-0.1,0-0.2,0-0.3c0-0.1,0-0.2,0-0.3v-1.9l-3.5,0.1
				c-2.2,0-4.1,1.9-4.1,4.1l-0.7,24.9c-0.1,2.2,1.7,4,3.9,4l48-0.1c2.2,0,3.9-1.8,3.9-4l0-0.7h-17.7c-0.8,0-1.4-0.6-1.4-1.4v-1.2
				c0-0.8,0.6-1.4,1.4-1.4H-109.9z"/>
			<path vector-effect="non-scaling-stroke" class="st2" d="M-168.3,384.8l-0.8,29.1c-0.1,2.5,1.9,4.5,4.4,4.5l52.9-0.1
				c2.5,0,4.5-2,4.4-4.5l-0.9-30.1c-0.1-2.5-2.2-4.5-4.7-4.4l-50.7,1C-166.1,380.2-168.2,382.3-168.3,384.8z"/>
			<path vector-effect="non-scaling-stroke" class="st2" d="M-167.1,382.7c14.7,13,25.1,19.7,31,19.9c8.2-0.3,15.3-8.2,26.5-21.8"/>
			<line vector-effect="non-scaling-stroke" class="st3" x1="-149.4" y1="397" x2="-167.7" y2="416.9"/>
			<line vector-effect="non-scaling-stroke" class="st3" x1="-123.4" y1="396.8" x2="-108.6" y2="416.7"/>
			<path vector-effect="non-scaling-stroke" class="st3" d="M-194.6,378.1c10.6-0.3,20.8-1.1,30.4-2.6"/>
			<path vector-effect="non-scaling-stroke" class="st3" d="M-202.6,417.2c6.7-1.1,16.9-1.9,30.4-2.6"/>
			<path vector-effect="non-scaling-stroke" class="st3" d="M-191.3,389.9c8.2-2.6,13.4-3.5,15.6-2.5"/>
			<path vector-effect="non-scaling-stroke" class="st3" d="M-196.7,401.5c12.2-2.3,18.6-3.9,19.2-4.7"/>
		</g>
	</g>
</g>
</svg>
