<?xml version="1.0" encoding="utf-8"?>
<!-- Generator: Adobe Illustrator 19.0.0, SVG Export Plug-In . SVG Version: 6.00 Build 0)  -->
<svg version="1.1" id="Capa_1" xmlns="http://www.w3.org/2000/svg" xmlns:xlink="http://www.w3.org/1999/xlink" x="0px" y="0px"
	 viewBox="-155 347 100 100" style="enable-background:new -155 347 100 100;" xml:space="preserve">
<style type="text/css">
	.st0{clip-path:url(#SVGID_2_);}
	.st1{fill:#FF9E94;}
	.st2{fill-opacity:0.1;}
	.st3{fill:#FFFFFF;stroke:#D51B1A;stroke-width:0.547;stroke-linecap:round;stroke-linejoin:round;stroke-miterlimit:3;}
	.st4{fill:#F8D1D2;}
	.st5{fill:none;stroke:#D51B1A;stroke-width:0.547;stroke-linecap:round;stroke-linejoin:round;stroke-miterlimit:3;}
	.st6{fill:#FF5D4D;}
	.st7{fill:none;stroke:#FFFFFF;stroke-width:1.6415;stroke-linecap:round;stroke-linejoin:round;stroke-miterlimit:3;}
	.st8{fill:none;}
	.st9{fill:#EBEBEB;}
	.st10{fill:none;stroke:#FFFFFF;stroke-width:0.547;stroke-linecap:round;stroke-linejoin:round;stroke-miterlimit:3;}
	.st11{fill:none;stroke:#FFFFFF;stroke-width:1.0945;stroke-linecap:round;stroke-linejoin:round;stroke-miterlimit:3;}
</style>
<g>
	<defs>
		<rect id="SVGID_1_" x="-155" y="347" width="100" height="100"/>
	</defs>
	<clipPath id="SVGID_2_">
		<use xlink:href="#SVGID_1_"  style="overflow:visible;"/>
	</clipPath>
	<g class="st0">
		<g id="Phone">
			<path class="st1" d="M-146.3,365.9c-2.5-2.2-4.4-2.2-5.8-0.2c-1.4,2,0.5,5.1,5.5,9.4L-146.3,365.9z"/>
			<path class="st2" d="M-146.6,365.8l-1.2,8.2c0.8,0.8,1.3,1,1.5,0.8L-146.6,365.8z"/>
			<path vector-effect="non-scaling-stroke" class="st3" d="M-128.3,412.8l-16.1-0.4c-1.2-0.2-1.9-1.1-2.2-2.9l0.3-46.5
				c0.4-2.5,1.9-3.6,4.5-3.4c11.8-1.3,19.8-0.7,24.1,1.8c0.8,1.3,1.2,3.1,1.2,5.3l0.3,35.8l-0.4,9.7L-128.3,412.8z"/>
			<path class="st4" d="M-128.3,411.1l-14.4-0.4c-1.1-0.2-1.7-1.1-2-2.7l0.8-10.9l-0.8-16.5l0.2-16.1c0.3-2.3,1.7-3.4,4-3.2
				c10.5-1.2,17.7-0.6,21.6,1.7c0.5,1.1,0.7,2.7,0.7,4.9l-0.5,8.2l1.1,25.4l-0.4,9.1L-128.3,411.1z"/>
			<line vector-effect="non-scaling-stroke" class="st5" x1="-146" y1="366.8" x2="-116.5" y2="366.8"/>
			<line vector-effect="non-scaling-stroke" class="st5" x1="-146.6" y1="405.1" x2="-116.3" y2="405.1"/>
			<line vector-effect="non-scaling-stroke" class="st5" x1="-135.7" y1="363.7" x2="-127.7" y2="363.7"/>
			<path vector-effect="non-scaling-stroke" class="st5" d="M-133.4,408c0-1,0.8-1.8,1.8-1.8c1,0,1.8,0.8,1.8,1.8
				c0,1-0.8,1.8-1.8,1.8C-132.6,409.8-133.4,409-133.4,408z"/>
			<path class="st1" d="M-128.5,413.1l12-0.7l0.3-12.2l0.3,1.6l-0.1-13.1c3.2,4,3.9,11.5,2.1,22.4c-2.1,12.2,7,15.7,7.3,19.6
				c0.2,2.6-1.1,1.9-3.8-2.1c1,2.3,0,3.4-3,3.3c-0.1,2.3-2.6,2.6-7.4,0.8c-0.4,3.4-2.1,3.1-5.3-0.7c-2.1-5.8-5.2-9.4-9.2-10.7
				c-5.9-1.7-8.7-4.6-8.3-8.7C-143.7,412.5-138.6,412.7-128.5,413.1z"/>
			<path class="st1" d="M-150.1,388.5c-1.5,2.7-2,5-1.3,6.8c2.4,3.9,4.3,4.7,5.8,2.3c1.8-2.4,1.5-4.2-0.9-5.7
				c3.1-0.1,4.1-2.2,2.9-6.3c0.1-0.4,3.8-3,1.7-7.4c0.5,0-4.5-6.3-7.9-1.9c-0.9,2-0.6,3.7,0.9,5.2
				C-151.7,383.1-152,385.5-150.1,388.5z"/>
			<path class="st6" d="M-122.6,382.4c9.3-1.3,14.6-3.2,15.9-5.7c3.2-6.5,6.9-10.5,11.2-12.1c3-2.2,6.3-3.6,9.4-4.4
				c3.5-0.9,7.3-0.1,10.8,0.6c3.1,0.6,6.2,0.7,9.3,2.5c2,1.2,5.3,5,6.8,10.6c1,3.5,0.5,7.9,0.9,12.2c0.5,5.1,1.4,10.5-0.2,15.4
				c-1.1,3.3-3.3,6.4-5.6,9.1c-2.5,2.9-4.8,6-9.1,7.7c-3.7,1.5-8.3,0.9-13.5-1.2c-3.1-1.2-6.6-2-9.6-5.8c-2.7-3.3-5.9-6.9-8.2-12.9
				c-1.2-3-1.8-7-2.6-11C-108.5,384.4-113.7,382.8-122.6,382.4z"/>
			<line vector-effect="non-scaling-stroke" class="st7" x1="-96.9" y1="377.4" x2="-64.9" y2="377.4"/>
			<line vector-effect="non-scaling-stroke" class="st7" x1="-96.9" y1="382.9" x2="-64.9" y2="382.9"/>
			<line vector-effect="non-scaling-stroke" class="st7" x1="-96.9" y1="394.4" x2="-64.9" y2="394.4"/>
			<g id="Group">
				<line vector-effect="non-scaling-stroke" class="st7" x1="-97.5" y1="388.1" x2="-89.6" y2="388.1"/>
				<line vector-effect="non-scaling-stroke" class="st7" x1="-81.2" y1="388.1" x2="-64.4" y2="388.1"/>
			</g>
			<g id="Group_1_">
				<line vector-effect="non-scaling-stroke" class="st7" x1="-64.4" y1="399.6" x2="-72.2" y2="399.6"/>
				<line vector-effect="non-scaling-stroke" class="st7" x1="-80.7" y1="399.6" x2="-97.5" y2="399.6"/>
			</g>
			<path class="st6" d="M-147.9,397.5c-1.6-1.3-2.2-2.4-1.6-3.4c0.4-0.8,1.5-0.5,3.2,1.1C-147.4,395.8-148,396.5-147.9,397.5z"/>
			<path class="st6" d="M-146.7,390.3c-2.1-1.1-2.4-2.4-0.9-3.9c0.5-0.1,1.1,0.1,2.1,0.7C-146.8,388-147.1,389.1-146.7,390.3z"/>
			<path class="st6" d="M-145.7,382.8c-1.1-1.1-1.8-1.9-2.2-2.4c-1.2-0.4,1.1-2.9,3.1-1.5C-145.8,379.9-146.1,381.2-145.7,382.8z"/>
			<path class="st2" d="M-129.1,392.2c-0.1,5,1.7,8.7,5.5,11.1c-1.3,0.5-1.9,1.7-1.8,3.4c-4.4,3.3-5.8,7.4-4.3,12.1l7.9-3.7
				l3.3-11.3l-3-6.2L-129.1,392.2z"/>
			<path class="st2" d="M-147,391.7c-1.9-1.5-2.9-2.6-3.1-3.3C-150.1,390.8-149.1,391.9-147,391.7z"/>
			<line class="st8" x1="-148.9" y1="381.5" x2="-143.6" y2="385.6"/>
			<path class="st2" d="M-115.9,399.4c-0.7-0.6-1.5-1.2-2.4-1.7l3.6,15.8c1-4.3,1.3-8,0.8-11c-0.2-0.8-0.6-1.5-1.2-2.2
				c0-6.3-0.3-10.1-0.9-11.4L-115.9,399.4z"/>
			<path class="st9" d="M-124.9,385.3h2.3v-10.4h-17.1v10.4h12.6v3.3L-124.9,385.3z"/>
			<path class="st1" d="M-129.8,419.1c0.2-5.1,2.3-9,6.4-11.8c-0.7-1.6-0.5-3,0.8-4.4c-6-5.2-7.8-10.3-5.2-15.3
				c1.4-1.1,3.3,0.3,5.7,4.2l3.6,4.8l3,4c1,1.7,1.5,3.2,1.4,4.7l-0.3,7.9"/>
			<path class="st6" d="M-125.3,388.8c0,1.5-0.5,2.2-1.5,2.2c2.3,2.9,3.6,3.4,3.8,1.5C-123.1,391.2-123.9,389.9-125.3,388.8z"/>
			<line vector-effect="non-scaling-stroke" class="st10" x1="-138" y1="381.1" x2="-128.5" y2="371.2"/>
			<line vector-effect="non-scaling-stroke" class="st10" x1="-134.9" y1="391.3" x2="-125.1" y2="380.5"/>
			<line vector-effect="non-scaling-stroke" class="st10" x1="-140.7" y1="391.3" x2="-121.8" y2="370.9"/>
			<line vector-effect="non-scaling-stroke" class="st7" x1="-145.2" y1="403" x2="-132.9" y2="403"/>
			<line vector-effect="non-scaling-stroke" class="st11" x1="-124.5" y1="363.2" x2="-118.5" y2="363.2"/>
		</g>
	</g>
</g>
</svg>
