<?xml version="1.0" encoding="utf-8"?>
<!-- Generator: Adobe Illustrator 19.0.0, SVG Export Plug-In . SVG Version: 6.00 Build 0)  -->
<svg version="1.1" id="Capa_1" xmlns="http://www.w3.org/2000/svg" xmlns:xlink="http://www.w3.org/1999/xlink" x="0px" y="0px"
	 width="100px" height="100px" viewBox="-205 347 100 100" style="enable-background:new -205 347 100 100;" xml:space="preserve">
<style type="text/css">
	.st0{clip-path:url(#SVGID_2_);}
	.st1{fill:#F8D1D2;}
	.st2{fill:none;stroke:#D51B1A;stroke-width:0.9767;stroke-linecap:round;stroke-linejoin:round;stroke-miterlimit:3;}
</style>
<g>
	<g>
		<defs>
			<rect id="SVGID_1_" x="-205" y="347" width="100" height="100"/>
		</defs>
		<clipPath id="SVGID_2_">
			<use xlink:href="#SVGID_1_"  style="overflow:visible;"/>
		</clipPath>
		<g class="st0">
			<g id="Prensa">
				<path class="st1" d="M-198.2,399.1l9.3-2c-2.7,8.6-0.9,14.8,5.1,18.6l20.7-20.2c3.9-3.8,8.1-2.6,9.4,2.6l2.4,9.3l14.1-5.8
					c0.8-16.6-2.8-21-10.9-13.3c7.5-14.9,13-12.1,16.5,8.3c1.7,22.5-2.9,33.3-13.9,32.3l-26.7-11.5c-1.7-0.7-3.4,0.1-3.7,1.9
					l-0.7,3.1l2.9,3.3l0.9,8.4l-8.7-2.7c-1.6-5-2.2-9.7-1.8-14.2l-10.7-1.5C-198,409.6-199.5,404-198.2,399.1z"/>
				<path vector-effect="non-scaling-stroke" class="st2" d="M-185.3,415.7l-8.7,0.5c-5.3-7.5-6.9-13.2-4.9-17.1l28.3-6.4
					c4.3-2.2,8.1-6.1,11.5-11.5c8.1-11.5,15.2-14.5,21.3-8.9c9.1,8.4,9.7,30.6,4.4,48.9c-4.4,15.4-20.8,3.7-42.7-4.9l-4.9,0.2"/>
				<path vector-effect="non-scaling-stroke" class="st2" d="M-183.1,416.4c-0.3,9.5,0.5,14.7,2.2,15.7c3.9,1.9,6.5,2.6,8,2v-6.7
					c-1.2-1.2-1.3-2.5-0.5-4c-0.1-1.3-0.9-2.3-2.2-2.9l-0.2-4.2"/>
				<path vector-effect="non-scaling-stroke" class="st2" d="M-141.2,376.7c-5.6,1.5-8.8,6.9-9.8,16.1c-1.9,23.7,3.3,34.7,15.4,32.9
					"/>
				<path vector-effect="non-scaling-stroke" class="st2" d="M-150.5,393.3c7.7,1.1,11.9,2.6,12.7,4.7c0.9,4.4,0.6,7.5-0.9,9.3
					l-10.4,4.2"/>
				<path vector-effect="non-scaling-stroke" class="st2" d="M-141.4,396.2c-3.6,5.1-3.2,9,1.1,11.8"/>
				<path vector-effect="non-scaling-stroke" class="st2" d="M-129.6,372.5c3.9-3.8,7.7-8.1,11.3-12.8"/>
				<path vector-effect="non-scaling-stroke" class="st2" d="M-126.5,420.5c5.1,2.1,10.5,3.9,16.3,5.4"/>
				<path vector-effect="non-scaling-stroke" class="st2" d="M-124.3,388.2c2.7-0.9,6.5-2.3,11.1-4.3"/>
				<path vector-effect="non-scaling-stroke" class="st2" d="M-111.1,409.9c-2.6-1.3-6.3-2.8-11.1-4.5"/>
			</g>
		</g>
	</g>
</g>
</svg>
