<?xml version="1.0" standalone="no"?><!-- Generator: Gravit.io --><svg xmlns="http://www.w3.org/2000/svg" xmlns:xlink="http://www.w3.org/1999/xlink" style="isolation:isolate" viewBox="0 0 200 200" width="200" height="200"><defs><clipPath id="_clipPath_TjtqyW4Gbn8eKSfgw24QML2Q7eOGlyq8"><rect width="200" height="200"/></clipPath></defs><g clip-path="url(#_clipPath_TjtqyW4Gbn8eKSfgw24QML2Q7eOGlyq8)"><g id="Puntuacion"><line x1="86.411" y1="108.079" x2="93.887" y2="123.965" vector-effect="non-scaling-stroke" stroke-width="0.748" stroke="rgb(219,33,31)" stroke-opacity="100" stroke-linejoin="round" stroke-linecap="round" stroke-miterlimit="3"/><path d=" M 128.928 116.35 Q 134.769 112.378 137.525 110.65 Q 138.783 109.86 143.459 115.976 Q 143.039 119.807 140.843 120.601 Q 135.189 122.47 133.227 121.209 Q 128.789 122.096 128.648 122.797 L 128.928 116.35 Z " fill="rgb(255,158,148)"/><path d=" M 81.272 104.809 Q 85.57 102.566 87.626 103.875 Q 98.653 120.134 101.082 120.601 Q 102.764 118.171 103.605 120.881 Q 123.322 118.732 128.648 114.247 L 128.742 124.058 Q 104.446 129.478 101.643 129.011" fill="none" vector-effect="non-scaling-stroke" stroke-width="0.748" stroke="rgb(219,33,31)" stroke-opacity="100" stroke-linejoin="round" stroke-linecap="round" stroke-miterlimit="3"/><path d=" M 136.451 117.097 C 137.245 114.714 140.002 114.761 140.843 117.004 L 140.843 128.404 L 136.497 128.404 L 136.451 117.097 Z " fill="rgb(255,255,255)" vector-effect="non-scaling-stroke" stroke-width="0.748" stroke="rgb(219,33,31)" stroke-opacity="100" stroke-linejoin="miter" stroke-linecap="square" stroke-miterlimit="3"/><path d=" M 150.234 136.019 Q 144.371 137.684 143.319 140.318 C 142.266 142.951 124.963 143.466 124.723 135.243 C 124.482 127.019 134.398 127.375 147.057 129.478 L 154.345 128.544 Q 116.314 60.922 54.516 72.384 L 51.276 132.936 L 65.582 133.081" fill="none" vector-effect="non-scaling-stroke" stroke-width="0.748" stroke="rgb(219,33,31)" stroke-opacity="100" stroke-linejoin="round" stroke-linecap="round" stroke-miterlimit="3"/><line x1="87.72" y1="133.403" x2="124.786" y2="133.683" vector-effect="non-scaling-stroke" stroke-width="0.748" stroke="rgb(219,33,31)" stroke-opacity="100" stroke-linejoin="round" stroke-linecap="round" stroke-miterlimit="3"/><path d=" M 58.098 88.55 Q 59.78 87.428 60.901 89.204 Q 65.386 97.801 62.209 102.566 Q 58.098 103.407 56.977 99.576 Q 55.855 91.26 58.098 88.55 Z " fill="none" vector-effect="non-scaling-stroke" stroke-width="0.748" stroke="rgb(219,33,31)" stroke-opacity="100" stroke-linejoin="round" stroke-linecap="round" stroke-miterlimit="3"/><path d=" M 62.209 102.66 Q 66.321 103.034 69.498 101.725" fill="none" vector-effect="non-scaling-stroke" stroke-width="0.748" stroke="rgb(219,33,31)" stroke-opacity="100" stroke-linejoin="round" stroke-linecap="round" stroke-miterlimit="3"/><path d=" M 58.845 88.269 Q 63.798 87.289 65.76 87.522" fill="none" vector-effect="non-scaling-stroke" stroke-width="0.748" stroke="rgb(219,33,31)" stroke-opacity="100" stroke-linejoin="round" stroke-linecap="round" stroke-miterlimit="3"/><path d=" M 54.64 146.765 Q 55.949 141.346 61.649 142.28 L 72.582 142.841 Q 74.544 146.672 72.769 148.26 Q 56.509 147.793 54.64 146.765 Z " fill="rgb(255,255,255)" vector-effect="non-scaling-stroke" stroke-width="0.748" stroke="rgb(219,33,31)" stroke-opacity="100" stroke-linejoin="round" stroke-linecap="round" stroke-miterlimit="3"/><path d=" M 67.068 142.467 Q 71.273 136.767 74.824 142.934 Q 76.787 151.718 71.741 150.877 Q 68.003 150.41 67.629 148.167" fill="none" vector-effect="non-scaling-stroke" stroke-width="0.748" stroke="rgb(219,33,31)" stroke-opacity="100" stroke-linejoin="miter" stroke-linecap="square" stroke-miterlimit="3"/><path d=" M 24.116 132.687 L 44.797 132.188 L 48.037 73.131 Q 31.84 71.885 27.853 73.38" fill="none" vector-effect="non-scaling-stroke" stroke-width="0.748" stroke="rgb(219,33,31)" stroke-opacity="100" stroke-linejoin="round" stroke-linecap="round" stroke-miterlimit="3"/><path d=" M 27.853 68.147 Q 121.795 53.196 164.904 128.949 Q 171.589 135.046 191.464 137.283" fill="none" vector-effect="non-scaling-stroke" stroke-width="0.748" stroke="rgb(219,33,31)" stroke-opacity="100" stroke-linejoin="round" stroke-linecap="round" stroke-miterlimit="3"/><line x1="50.529" y1="137.172" x2="49.532" y2="154.116" vector-effect="non-scaling-stroke" stroke-width="0.748" stroke="rgb(219,33,31)" stroke-opacity="100" stroke-linejoin="round" stroke-linecap="round" stroke-miterlimit="3"/><line x1="43.552" y1="136.922" x2="42.804" y2="151.126" vector-effect="non-scaling-stroke" stroke-width="0.748" stroke="rgb(219,33,31)" stroke-opacity="100" stroke-linejoin="round" stroke-linecap="round" stroke-miterlimit="3"/><path d=" M 71.554 105.743 Q 63.237 104.435 58.004 110.042 L 59.593 133.123" fill="none" vector-effect="non-scaling-stroke" stroke-width="0.748" stroke="rgb(219,33,31)" stroke-opacity="100" stroke-linejoin="round" stroke-linecap="round" stroke-miterlimit="3"/><line x1="62.606" y1="103.01" x2="63.868" y2="108.781" vector-effect="non-scaling-stroke" stroke-width="1.495" stroke="rgb(219,33,31)" stroke-opacity="100" stroke-linejoin="round" stroke-linecap="round" stroke-miterlimit="3"/><path d=" M 26.607 67.525 Q 6.423 83.971 22.496 91.82 Q 44.175 100.791 15.02 112.752 Q -5.911 125.834 19.505 135.926 Q 14.895 138.417 27.355 154.988 C 39.814 171.559 48.66 143.401 58.004 160.221 C 67.349 177.041 72.582 147.139 85.664 166.576 C 98.746 186.012 107.592 158.477 112.077 157.356 C 116.562 156.235 118.058 139.913 141.357 157.979 Q 152.944 167.697 157.055 156.11 Q 160.793 138.169 181.351 155.362 Q 191.069 155.736 188.826 147.513 Q 181.351 137.047 193.311 139.664 Q 200.039 126.457 166.4 116.738 Q 106.097 44.475 26.607 67.525 Z  M 57.915 68.991 Q 114.569 60.174 158.177 124.961 L 158.066 127.955 C 157.99 130.016 156.257 131.806 154.199 131.95 L 147.212 132.437 Q 124.537 128.201 133.009 141.408 L 87.407 140.238 C 85.757 140.197 84.786 141.45 85.239 143.037 Q 86.411 147.139 50.778 146.143 C 49.034 146.392 5.427 149.133 42.057 137.421 Q 51.027 142.155 47.04 134.68 L 50.125 77.606 C 50.348 73.486 53.839 69.626 57.915 68.991 Z " fill-rule="evenodd" fill="rgb(248,210,210)"/><line x1="141.17" y1="123.778" x2="151.635" y2="129.011" vector-effect="non-scaling-stroke" stroke-width="0.748" stroke="rgb(219,33,31)" stroke-opacity="100" stroke-linejoin="miter" stroke-linecap="square" stroke-miterlimit="3"/><path d=" M 62.061 110.056 Q 64.237 110.74 64.051 115.654" fill="none" vector-effect="non-scaling-stroke" stroke-width="0.748" stroke="rgb(219,33,31)" stroke-opacity="100" stroke-linejoin="round" stroke-linecap="round" stroke-miterlimit="3"/><path d=" M 85.415 68.147 Q 77.441 57.433 61.244 58.679 Q 15.394 64.659 13.151 45.971 Q 7.42 23.793 42.057 27.531 Q 113.323 29.524 118.556 26.783 Q 144.222 24.292 141.481 43.728 Q 135.75 62.292 92.766 56.311 Q 85.29 57.807 85.415 68.147 Z " fill="rgb(255,93,77)"/><path d=" M 39.321 40.828 Q 41.889 31.858 43.154 40.567 Q 51.679 41.088 44.122 44.401 Q 45.872 52.776 40.773 45.816 Q 35.374 52.851 38.241 44.141 Q 30.871 39.971 39.321 40.828 Z " fill="rgb(255,255,255)"/><path d=" M 57.26 40.828 Q 59.828 31.858 61.094 40.567 Q 69.618 41.088 62.061 44.401 Q 63.811 52.776 58.712 45.816 Q 53.314 52.851 56.18 44.141 Q 48.81 39.971 57.26 40.828 Z " fill="rgb(255,255,255)"/><path d=" M 75.199 40.828 Q 77.767 31.858 79.033 40.567 Q 87.557 41.088 80.001 44.401 Q 81.75 52.776 76.651 45.816 Q 71.253 52.851 74.119 44.141 Q 66.749 39.971 75.199 40.828 Z " fill="rgb(255,255,255)"/><path d=" M 93.139 40.828 Q 95.707 31.858 96.973 40.567 Q 105.496 41.088 97.94 44.401 Q 99.689 52.776 94.59 45.816 Q 89.193 52.851 92.059 44.141 Q 84.689 39.971 93.139 40.828 Z " fill="rgb(255,255,255)"/><path d=" M 111.078 40.84 Q 113.646 31.869 114.912 40.579 Q 123.436 41.101 115.88 44.413 Q 117.629 52.789 112.529 45.828 Q 107.132 52.863 109.998 44.153 Q 102.628 39.984 111.078 40.84 Z " fill="rgb(255,255,255)"/><path d=" M 70.713 106.304 Q 63.144 107.986 62.022 111.07 Q 59.686 125.834 60.808 129.665 Q 60.714 129.104 65.76 109.294 Q 68.657 106.958 70.713 106.304 Z " fill="rgb(248,210,210)"/><path d=" M 73.516 115.275 L 71.881 124.947 L 84.729 128.731 Q 70.526 127.983 69.498 126.114 L 73.516 115.275 Z " fill="rgb(248,209,210)"/><path d=" M 86.598 108.36 L 100.615 128.824 L 95.849 128.918 L 86.598 108.36 Z " fill="rgb(246,206,209)"/><line x1="114.632" y1="108.079" x2="107.81" y2="106.117"/><g id="Group"><path d=" M 88.141 129.432 Q 93.513 129.478 93.373 124.058 L 92.813 120.694 Q 95.242 119.246 96.364 123.171 Q 96.457 125.46 96.364 126.348 Q 99.711 125.497 100.241 126.255 C 101.817 128.507 102.887 133.211 99.4 136.44 Q 95.242 137.514 90.616 134.945 Q 88.934 134.805 88.234 135.085 Q 86.411 132.235 88.141 129.432 Z " fill="rgb(255,158,148)"/><path d=" M 97.015 130.129 Q 100.163 130.519 101.655 129.967" fill="none" vector-effect="non-scaling-stroke" stroke-width="0.748" stroke="rgb(255,93,77)" stroke-opacity="100" stroke-linejoin="miter" stroke-linecap="square" stroke-miterlimit="3"/><path d=" M 96.529 132.887 Q 100.13 133.342 101.525 132.984" fill="none" vector-effect="non-scaling-stroke" stroke-width="0.748" stroke="rgb(255,93,77)" stroke-opacity="100" stroke-linejoin="miter" stroke-linecap="square" stroke-miterlimit="3"/></g><path d=" M 73.329 105.557 Q 68.377 106.865 66.041 109.107 Q 61.182 124.526 60.714 130.319 Q 68.377 136.019 88.374 135.085 Q 86.505 130.973 88.748 129.385 Q 70.9 127.609 69.405 126.114 L 74.357 112.565" fill="none" vector-effect="non-scaling-stroke" stroke-width="0.748" stroke="rgb(219,33,31)" stroke-opacity="100" stroke-linejoin="round" stroke-linecap="round" stroke-miterlimit="3"/><path d=" M 62.072 87.863 Q 65.321 99.152 62.628 102.53 Q 66.989 103.043 69.042 101.76 Q 65.835 88.505 64.851 87.863 L 62.072 87.863 Z " fill="rgb(246,207,207)"/><path d=" M 82.175 114.247 L 72.208 104.778 Q 61.742 100.542 65.48 87.335 L 67.972 74.875 Q 82.425 70.64 86.411 77.368 Q 88.903 100.791 81.427 104.03 Q 81.427 112.004 82.175 114.247 Z " fill="rgb(255,158,148)"/><path d=" M 62.303 86.377 C 62.303 84.636 63.151 83.223 64.195 83.223 C 65.239 83.223 66.088 84.636 66.088 86.377 C 66.088 88.118 65.239 89.531 64.195 89.531 C 63.151 89.531 62.303 88.118 62.303 86.377 Z " fill="rgb(255,158,148)"/><path d=" M 86.131 86.284 C 86.131 84.543 86.979 83.13 88.023 83.13 C 89.067 83.13 89.916 84.543 89.916 86.284 C 89.916 88.024 89.067 89.438 88.023 89.438 C 86.979 89.438 86.131 88.024 86.131 86.284 Z " fill="rgb(255,158,148)"/><path d=" M 65.297 86.599 L 66.578 86.825 L 68.537 75.447 Q 79.765 71.453 85.642 77.18 L 85.567 87.881 L 86.772 87.654 L 86.848 82.606 Q 90.691 76.201 85.793 72.583 Q 82.101 69.569 66.879 71.68 Q 65.523 69.871 65.297 68.816 Q 63.112 68.062 63.187 70.926 C 63.036 70.474 61.529 75.221 66.352 77.708 L 65.297 86.599 Z " fill="rgb(255,93,77)"/><path d=" M 68.844 83.597 Q 71.741 82.195 73.937 84.298" fill="none" vector-effect="non-scaling-stroke" stroke-width="0.748" stroke="rgb(0,0,0)" stroke-opacity="100" stroke-linejoin="miter" stroke-linecap="square" stroke-miterlimit="3"/><path d=" M 77.815 83.877 Q 80.291 81.541 82.814 83.971" fill="none" vector-effect="non-scaling-stroke" stroke-width="0.748" stroke="rgb(0,0,0)" stroke-opacity="100" stroke-linejoin="miter" stroke-linecap="square" stroke-miterlimit="3"/><path d=" M 68.937 79.813 Q 72.255 78.598 74.217 79.018" fill="none" vector-effect="non-scaling-stroke" stroke-width="0.748" stroke="rgb(255,93,77)" stroke-opacity="100" stroke-linejoin="miter" stroke-linecap="square" stroke-miterlimit="3"/><path d=" M 77.955 79.065 Q 81.833 78.458 83.468 79.766" fill="none" vector-effect="non-scaling-stroke" stroke-width="0.748" stroke="rgb(255,93,77)" stroke-opacity="100" stroke-linejoin="miter" stroke-linecap="square" stroke-miterlimit="3"/><path d=" M 75.946 86.587 Q 73.657 85.98 73.47 88.13 Q 73.703 90.372 76.367 89.858" fill="none" vector-effect="non-scaling-stroke" stroke-width="0.374" stroke="rgb(0,0,0)" stroke-opacity="100" stroke-linejoin="round" stroke-linecap="round" stroke-miterlimit="3"/><path d=" M 68.844 92.335 Q 75.432 96.072 81.739 91.961 Q 75.105 103.922 68.844 92.335 Z " fill="rgb(255,255,255)" vector-effect="non-scaling-stroke" stroke-width="0.374" stroke="rgb(0,0,0)" stroke-opacity="100" stroke-linejoin="round" stroke-linecap="round" stroke-miterlimit="3"/><path d=" M 70.672 101.236 Q 74.83 103.571 80.003 100.647 Q 75.622 108.1 70.672 101.236 Z " fill="rgb(0,0,0)" fill-opacity="0.1"/></g></g></svg>