<?xml version="1.0" standalone="no"?><!-- Generator: Gravit.io --><svg xmlns="http://www.w3.org/2000/svg" xmlns:xlink="http://www.w3.org/1999/xlink" style="isolation:isolate" viewBox="594.855 110.621 252.645 196.642" width="252.645" height="196.642"><g style="isolation:isolate" id="Puntuación"><line x1="703" y1="219.75" x2="713" y2="241" vector-effect="non-scaling-stroke" stroke-width="1" stroke="rgb(219,33,31)" stroke-linejoin="round" stroke-linecap="round" stroke-miterlimit="3"/><path d=" M 759.875 230.813 Q 767.688 225.5 771.375 223.188 Q 773.058 222.132 779.313 230.313 Q 778.75 235.438 775.813 236.5 Q 768.25 239 765.625 237.313 Q 759.688 238.5 759.5 239.438 L 759.875 230.813 Z " fill="rgb(255,158,148)"/><path d=" M 696.125 215.375 Q 701.875 212.375 704.625 214.125 Q 719.375 235.875 722.625 236.5 Q 724.875 233.25 726 236.875 Q 752.375 234 759.5 228 L 759.625 241.125 Q 727.125 248.375 723.375 247.75" fill="none" vector-effect="non-scaling-stroke" stroke-width="1" stroke="rgb(219,33,31)" stroke-linejoin="round" stroke-linecap="round" stroke-miterlimit="3"/><path d=" M 769.938 231.813 C 771 228.625 774.688 228.688 775.813 231.688 L 775.813 246.938 L 770 246.938 L 769.938 231.813 Z " fill="rgb(255,255,255)" vector-effect="non-scaling-stroke" stroke-width="1" stroke="rgb(219,33,31)" stroke-linejoin="miter" stroke-linecap="square" stroke-miterlimit="3"/><path d=" M 788.375 257.125 Q 780.533 259.352 779.125 262.875 C 777.717 266.398 754.571 267.087 754.249 256.086 C 753.927 245.085 767.192 245.561 784.125 248.375 L 793.875 247.125 Q 743 156.667 660.333 172 L 656 253 L 675.137 253.195" fill="none" vector-effect="non-scaling-stroke" stroke-width="1" stroke="rgb(219,33,31)" stroke-linejoin="round" stroke-linecap="round" stroke-miterlimit="3"/><line x1="704.75" y1="253.625" x2="754.333" y2="254" vector-effect="non-scaling-stroke" stroke-width="1" stroke="rgb(219,33,31)" stroke-linejoin="round" stroke-linecap="round" stroke-miterlimit="3"/><path d=" M 665.125 193.625 Q 667.375 192.125 668.875 194.5 Q 674.875 206 670.625 212.375 Q 665.125 213.5 663.625 208.375 Q 662.125 197.25 665.125 193.625 Z " fill="none" vector-effect="non-scaling-stroke" stroke-width="1" stroke="rgb(219,33,31)" stroke-linejoin="round" stroke-linecap="round" stroke-miterlimit="3"/><path d=" M 670.625 212.5 Q 676.125 213 680.375 211.25" fill="none" vector-effect="non-scaling-stroke" stroke-width="1" stroke="rgb(219,33,31)" stroke-linejoin="round" stroke-linecap="round" stroke-miterlimit="3"/><path d=" M 666.125 193.25 Q 672.75 191.938 675.375 192.25" fill="none" vector-effect="non-scaling-stroke" stroke-width="1" stroke="rgb(219,33,31)" stroke-linejoin="round" stroke-linecap="round" stroke-miterlimit="3"/><path d=" M 660.5 271.5 Q 662.25 264.25 669.875 265.5 L 684.5 266.25 Q 687.125 271.375 684.75 273.5 Q 663 272.875 660.5 271.5 Z " fill="rgb(255,255,255)" vector-effect="non-scaling-stroke" stroke-width="1" stroke="rgb(219,33,31)" stroke-linejoin="round" stroke-linecap="round" stroke-miterlimit="3"/><path d=" M 677.125 265.75 Q 682.75 258.125 687.5 266.375 Q 690.125 278.125 683.375 277 Q 678.375 276.375 677.875 273.375" fill="none" vector-effect="non-scaling-stroke" stroke-width="1" stroke="rgb(219,33,31)" stroke-linejoin="miter" stroke-linecap="square" stroke-miterlimit="3"/><path d=" M 619.667 252.667 L 647.333 252 L 651.667 173 Q 630 171.333 624.667 173.333" fill="none" vector-effect="non-scaling-stroke" stroke-width="1" stroke="rgb(219,33,31)" stroke-linejoin="round" stroke-linecap="round" stroke-miterlimit="3"/><path d=" M 624.667 166.333 Q 750.333 146.333 808 247.667 Q 816.942 255.823 843.528 258.816" fill="none" vector-effect="non-scaling-stroke" stroke-width="1" stroke="rgb(219,33,31)" stroke-linejoin="round" stroke-linecap="round" stroke-miterlimit="3"/><line x1="655" y1="258.667" x2="653.667" y2="281.333" vector-effect="non-scaling-stroke" stroke-width="1" stroke="rgb(219,33,31)" stroke-linejoin="round" stroke-linecap="round" stroke-miterlimit="3"/><line x1="645.667" y1="258.333" x2="644.667" y2="277.333" vector-effect="non-scaling-stroke" stroke-width="1" stroke="rgb(219,33,31)" stroke-linejoin="round" stroke-linecap="round" stroke-miterlimit="3"/><path d=" M 683.125 216.625 Q 672 214.875 665 222.375 L 667.125 253.25" fill="none" vector-effect="non-scaling-stroke" stroke-width="1" stroke="rgb(219,33,31)" stroke-linejoin="round" stroke-linecap="round" stroke-miterlimit="3"/><line x1="671.156" y1="212.969" x2="672.844" y2="220.688" vector-effect="non-scaling-stroke" stroke-width="2" stroke="rgb(219,33,31)" stroke-linejoin="round" stroke-linecap="round" stroke-miterlimit="3"/><path d=" M 623 165.5 Q 596 187.5 617.5 198 Q 646.5 210 607.5 226 Q 579.5 243.5 613.5 257 Q 607.333 260.333 624 282.5 C 640.667 304.667 652.5 267 665 289.5 C 677.5 312 684.5 272 702 298 C 719.5 324 731.333 287.167 737.333 285.667 C 743.333 284.167 745.333 262.333 776.5 286.5 Q 792 299.5 797.5 284 Q 802.5 260 830 283 Q 843 283.5 840 272.5 Q 830 258.5 846 262 Q 855 244.333 810 231.333 Q 729.333 134.667 623 165.5 Z  M 664.881 167.462 Q 740.667 155.667 799 242.333 L 798.852 246.337 C 798.75 249.094 796.432 251.489 793.679 251.681 L 784.333 252.333 Q 754 246.667 765.333 264.333 L 704.332 262.769 C 702.125 262.713 700.826 264.39 701.432 266.513 Q 703 272 655.333 270.667 C 653 271 594.667 274.667 643.667 259 Q 655.667 265.333 650.333 255.333 L 654.46 178.985 C 654.758 173.474 659.428 168.311 664.881 167.462 Z " fill-rule="evenodd" fill="rgb(248,210,210)" style="mix-blend-mode:multiply;"/><line x1="776.25" y1="240.75" x2="790.25" y2="247.75" vector-effect="non-scaling-stroke" stroke-width="1" stroke="rgb(219,33,31)" stroke-linejoin="miter" stroke-linecap="square" stroke-miterlimit="3"/><path d=" M 670.426 222.394 Q 673.338 223.309 673.088 229.882" fill="none" vector-effect="non-scaling-stroke" stroke-width="1" stroke="rgb(219,33,31)" stroke-linejoin="round" stroke-linecap="round" stroke-miterlimit="3"/><path d=" M 701.667 166.333 Q 691 152 669.333 153.667 Q 608 161.667 605 136.667 Q 597.333 107 643.667 112 Q 739 114.667 746 111 Q 780.333 107.667 776.667 133.667 Q 769 158.5 711.5 150.5 Q 701.5 152.5 701.667 166.333 Z " fill="rgb(255,93,77)"/><path d=" M 640.007 129.788 Q 643.442 117.788 645.135 129.439 Q 656.538 130.136 646.43 134.568 Q 648.77 145.771 641.949 136.46 Q 634.728 145.871 638.563 134.219 Q 628.704 128.642 640.007 129.788 Z " fill="rgb(255,255,255)"/><path d=" M 664.004 129.788 Q 667.44 117.788 669.133 129.439 Q 680.535 130.136 670.427 134.568 Q 672.768 145.771 665.946 136.46 Q 658.726 145.871 662.56 134.219 Q 652.701 128.642 664.004 129.788 Z " fill="rgb(255,255,255)"/><path d=" M 688.001 129.788 Q 691.437 117.788 693.13 129.439 Q 704.533 130.136 694.425 134.568 Q 696.765 145.771 689.943 136.46 Q 682.723 145.871 686.557 134.219 Q 676.698 128.642 688.001 129.788 Z " fill="rgb(255,255,255)"/><path d=" M 711.999 129.788 Q 715.435 117.788 717.128 129.439 Q 728.53 130.136 718.422 134.568 Q 720.762 145.771 713.941 136.46 Q 706.721 145.871 710.555 134.219 Q 700.696 128.642 711.999 129.788 Z " fill="rgb(255,255,255)"/><path d=" M 735.996 129.804 Q 739.432 117.804 741.125 129.455 Q 752.528 130.153 742.42 134.584 Q 744.76 145.788 737.938 136.476 Q 730.718 145.887 734.552 134.236 Q 724.693 128.659 735.996 129.804 Z " fill="rgb(255,255,255)"/><path d=" M 682 217.375 Q 671.875 219.625 670.375 223.75 Q 667.25 243.5 668.75 248.625 Q 668.625 247.875 675.375 221.375 Q 679.25 218.25 682 217.375 Z " fill="rgb(248,210,210)" style="mix-blend-mode:multiply;"/><path d=" M 685.75 229.375 L 683.563 242.313 L 700.75 247.375 Q 681.75 246.375 680.375 243.875 L 685.75 229.375 Z " fill="rgb(248,209,210)" style="mix-blend-mode:multiply;"/><path d=" M 703.25 220.125 L 722 247.5 L 715.625 247.625 L 703.25 220.125 Z " fill="rgb(246,206,209)" style="mix-blend-mode:multiply;"/><line x1="740.75" y1="219.75" x2="731.625" y2="217.125"/><g id="Group"><path d=" M 705.313 248.313 Q 712.5 248.375 712.313 241.125 L 711.563 236.625 Q 714.813 234.688 716.313 239.938 Q 716.438 243 716.313 244.188 Q 720.791 243.049 721.5 244.063 C 723.608 247.076 725.04 253.369 720.375 257.688 Q 714.813 259.125 708.625 255.688 Q 706.375 255.5 705.438 255.875 Q 703 252.063 705.313 248.313 Z " fill="rgb(255,158,148)"/><path d=" M 717.185 249.246 Q 721.395 249.767 723.391 249.029" fill="none" vector-effect="non-scaling-stroke" stroke-width="1" stroke="rgb(255,93,77)" stroke-linejoin="miter" stroke-linecap="square" stroke-miterlimit="3"/><path d=" M 716.534 252.935 Q 721.351 253.543 723.218 253.065" fill="none" vector-effect="non-scaling-stroke" stroke-width="1" stroke="rgb(255,93,77)" stroke-linejoin="miter" stroke-linecap="square" stroke-miterlimit="3"/></g><path d=" M 685.5 216.375 Q 678.875 218.125 675.75 221.125 Q 669.25 241.75 668.625 249.5 Q 678.875 257.125 705.625 255.875 Q 703.125 250.375 706.125 248.25 Q 682.25 245.875 680.25 243.875 L 686.875 225.75" fill="none" vector-effect="non-scaling-stroke" stroke-width="1" stroke="rgb(219,33,31)" stroke-linejoin="round" stroke-linecap="round" stroke-miterlimit="3"/><path d=" M 670.441 192.707 Q 674.788 207.808 671.185 212.326 Q 677.019 213.013 679.765 211.297 Q 675.475 193.565 674.159 192.707 L 670.441 192.707 Z " fill="rgb(246,207,207)" style="mix-blend-mode:multiply;"/><path d=" M 697.333 228 L 684 215.333 Q 670 209.667 675 192 L 678.333 175.333 Q 697.667 169.667 703 178.667 Q 706.333 210 696.333 214.333 Q 696.333 225 697.333 228 Z " fill="rgb(255,158,148)"/><path d=" M 670.75 190.719 C 670.75 188.39 671.884 186.5 673.281 186.5 C 674.678 186.5 675.813 188.39 675.813 190.719 C 675.813 193.047 674.678 194.938 673.281 194.938 C 671.884 194.938 670.75 193.047 670.75 190.719 Z " fill="rgb(255,158,148)"/><path d=" M 702.625 190.594 C 702.625 188.265 703.759 186.375 705.156 186.375 C 706.553 186.375 707.688 188.265 707.688 190.594 C 707.688 192.922 706.553 194.813 705.156 194.813 C 703.759 194.813 702.625 192.922 702.625 190.594 Z " fill="rgb(255,158,148)"/><path d=" M 674.755 191.016 L 676.469 191.318 L 679.09 176.098 Q 694.109 170.755 701.971 178.416 L 701.87 192.73 L 703.483 192.427 L 703.584 185.674 Q 708.725 177.106 702.173 172.267 Q 697.234 168.235 676.872 171.058 Q 675.058 168.638 674.755 167.227 Q 671.832 166.219 671.933 170.05 C 671.731 169.445 669.715 175.795 676.166 179.122 L 674.755 191.016 Z " fill="rgb(255,93,77)"/><path d=" M 679.5 187 Q 683.375 185.125 686.313 187.938" fill="none" vector-effect="non-scaling-stroke" stroke-width="1" stroke="rgb(0,0,0)" stroke-linejoin="miter" stroke-linecap="square" stroke-miterlimit="3"/><path d=" M 691.5 187.375 Q 694.813 184.25 698.188 187.5" fill="none" vector-effect="non-scaling-stroke" stroke-width="1" stroke="rgb(0,0,0)" stroke-linejoin="miter" stroke-linecap="square" stroke-miterlimit="3"/><path d=" M 679.625 181.938 Q 684.063 180.313 686.688 180.875" fill="none" vector-effect="non-scaling-stroke" stroke-width="1" stroke="rgb(255,93,77)" stroke-linejoin="miter" stroke-linecap="square" stroke-miterlimit="3"/><path d=" M 691.688 180.938 Q 696.875 180.125 699.063 181.875" fill="none" vector-effect="non-scaling-stroke" stroke-width="1" stroke="rgb(255,93,77)" stroke-linejoin="miter" stroke-linecap="square" stroke-miterlimit="3"/><path d=" M 689 191 Q 685.938 190.188 685.688 193.063 Q 686 196.063 689.563 195.375" fill="none" vector-effect="non-scaling-stroke" stroke-width="0.5" stroke="rgb(0,0,0)" stroke-linejoin="round" stroke-linecap="round" stroke-miterlimit="3"/><path d=" M 679.5 198.688 Q 688.313 203.688 696.75 198.188 Q 687.875 214.188 679.5 198.688 Z " fill="rgb(255,255,255)" vector-effect="non-scaling-stroke" stroke-width="0.5" stroke="rgb(0,0,0)" stroke-linejoin="round" stroke-linecap="round" stroke-miterlimit="3"/><path d=" M 681.945 210.596 Q 687.507 213.719 694.428 209.807 Q 688.567 219.778 681.945 210.596 Z " fill="rgb(0,0,0)" fill-opacity="0.1"/></g></svg>