<?xml version="1.0" encoding="utf-8"?>
<!-- Generator: Adobe Illustrator 19.0.0, SVG Export Plug-In . SVG Version: 6.00 Build 0)  -->
<svg version="1.1" id="Capa_1" xmlns="http://www.w3.org/2000/svg" xmlns:xlink="http://www.w3.org/1999/xlink" x="0px" y="0px"
	 viewBox="-255 347 100 100" style="enable-background:new -255 347 100 100;" xml:space="preserve">
<style type="text/css">
	.st0{clip-path:url(#SVGID_2_);}
	.st1{fill:#F8D1D2;stroke:#DF4444;stroke-width:0.5535;stroke-linecap:square;stroke-miterlimit:3;}
	.st2{fill:none;stroke:#FFFFFF;stroke-width:1.918;stroke-linecap:round;stroke-linejoin:round;stroke-miterlimit:3;}
	.st3{fill:#FFFFFF;}
	.st4{enable-background:new    ;}
	.st5{fill:#464646;}
	.st6{fill:#FF5D4D;}
	.st7{fill:#F8D1D2;stroke:#DF4444;stroke-width:0.6395;stroke-linecap:square;stroke-miterlimit:3;}
</style>
<g>
	<g>
		<defs>
			<rect id="SVGID_1_" x="-255" y="347" width="100" height="100"/>
		</defs>
		<clipPath id="SVGID_2_">
			<use xlink:href="#SVGID_1_"  style="overflow:visible;"/>
		</clipPath>
		<g class="st0">
			<g id="Seleccion">
				<g id="Group_2_">
					<g id="Group_1_">
						<path vector-effect="non-scaling-stroke" class="st1" d="M-191.5,401.3c-0.1-11.3-0.9-21-0.2-28.9l0.2-5.5
							c0-1.2,1-2.2,2.1-2.2c0,0,2.3,0.4,5.7,0.4c6.5,0,13.8-2.1,23.7-0.9c1.2,0.1,2.1,1.3,2.1,2.5l-0.5,9l0.4,14l0.1,11.5l0.2,10.1
							v4.5c0,1.2-1,2.2-2.2,2.3c-0.7,0-3.1-0.3-5.7-0.3c-10.3,1-17.3,0.1-20.9,0h-2.7c-1.2,0-2.2-1-2.3-2.2
							C-191.6,411.6-191.5,406.7-191.5,401.3z"/>
						<line vector-effect="non-scaling-stroke" class="st2" x1="-184.8" y1="383.1" x2="-163.7" y2="383.1"/>
						<line vector-effect="non-scaling-stroke" class="st2" x1="-184.8" y1="386.9" x2="-163.7" y2="386.9"/>
						<line vector-effect="non-scaling-stroke" class="st2" x1="-184.8" y1="390.7" x2="-163.7" y2="390.7"/>
						<path class="st3" d="M-180.1,373.9c0-3.3,2.6-5.9,5.9-5.9s5.9,2.6,5.9,5.9s-2.6,5.9-5.9,5.9S-180.1,377.1-180.1,373.9z"/>
						<g id="Group">
							<g transform="matrix(1.279,0,0,1.279,141.713,95.285)">
								<g class="st4">
									<path class="st5" d="M-251.6,239.5c-0.2,0.2-0.6,0.4-1,0.4v0.7h-0.5v-0.7c-0.3,0-0.6-0.1-0.8-0.2c-0.3-0.1-0.5-0.2-0.6-0.3
										l0.3-0.6c0.1,0.1,0.3,0.2,0.5,0.3c0.2,0.1,0.4,0.1,0.7,0.2v-1.2c-0.3-0.1-0.5-0.1-0.7-0.2c-0.2-0.1-0.3-0.2-0.5-0.4
										c-0.1-0.2-0.2-0.4-0.2-0.6c0-0.3,0.1-0.6,0.4-0.8c0.2-0.2,0.6-0.4,1-0.4v-0.7h0.5v0.7c0.2,0,0.4,0.1,0.7,0.1
										c0.2,0.1,0.4,0.1,0.6,0.3l-0.2,0.6c-0.3-0.2-0.6-0.3-1-0.3v1.2c0.3,0.1,0.5,0.1,0.7,0.2c0.2,0.1,0.4,0.2,0.5,0.4
										c0.1,0.2,0.2,0.4,0.2,0.6C-251.2,239-251.3,239.3-251.6,239.5z M-253.5,237.1c0.1,0.1,0.3,0.1,0.5,0.2v-1.1
										c-0.2,0-0.4,0.1-0.5,0.2s-0.1,0.2-0.1,0.4C-253.7,237-253.6,237.1-253.5,237.1z M-252.1,239.1c0.1-0.1,0.2-0.2,0.2-0.3
										s-0.1-0.2-0.2-0.3c-0.1-0.1-0.3-0.2-0.5-0.2v1.1C-252.4,239.2-252.2,239.2-252.1,239.1z"/>
									<path class="st5" d="M-249.3,235.7v4.2h-0.8v-3.5h-0.9v-0.7H-249.3z"/>
									<path class="st5" d="M-245.9,237.6c0.3,0.2,0.4,0.5,0.4,0.9c0,0.3-0.1,0.5-0.2,0.7c-0.1,0.2-0.3,0.4-0.6,0.5
										s-0.6,0.2-0.9,0.2c-0.3,0-0.6,0-0.9-0.1c-0.3-0.1-0.5-0.2-0.7-0.4l0.3-0.6c0.2,0.1,0.3,0.2,0.6,0.3
										c0.2,0.1,0.4,0.1,0.7,0.1c0.3,0,0.5-0.1,0.7-0.2c0.2-0.1,0.2-0.3,0.2-0.5c0-0.2-0.1-0.4-0.3-0.5c-0.2-0.1-0.5-0.2-0.9-0.2
										h-1l0.2-2.3h2.5v0.7h-1.8l-0.1,1h0.4C-246.6,237.3-246.2,237.4-245.9,237.6z"/>
									<path class="st5" d="M-244.2,239.7c-0.3-0.2-0.5-0.4-0.6-0.7c-0.2-0.3-0.2-0.7-0.2-1.2c0-0.4,0.1-0.8,0.2-1.2
										c0.2-0.3,0.4-0.6,0.6-0.7c0.3-0.2,0.6-0.3,0.9-0.3s0.6,0.1,0.9,0.3c0.3,0.2,0.5,0.4,0.6,0.7c0.2,0.3,0.2,0.7,0.2,1.2
										c0,0.4-0.1,0.8-0.2,1.2c-0.2,0.3-0.4,0.6-0.6,0.7c-0.3,0.2-0.6,0.3-0.9,0.3S-243.9,239.8-244.2,239.7z M-242.5,238.9
										c0.2-0.2,0.3-0.6,0.3-1.1c0-0.5-0.1-0.9-0.3-1.1c-0.2-0.2-0.4-0.4-0.7-0.4c-0.3,0-0.5,0.1-0.7,0.4
										c-0.2,0.2-0.3,0.6-0.3,1.1c0,0.5,0.1,0.9,0.3,1.1c0.2,0.2,0.4,0.4,0.7,0.4C-243,239.2-242.7,239.1-242.5,238.9z"/>
								</g>
							</g>
						</g>
						<path class="st6" d="M-184.9,407h21.3c0.7,0,1.3,0.6,1.3,1.3v4.6c0,0.7-0.6,1.3-1.3,1.3h-21.3c-0.7,0-1.3-0.6-1.3-1.3v-4.6
							C-186.2,407.6-185.6,407-184.9,407z"/>
					</g>
				</g>
				<g id="Group_4_">
					<path vector-effect="non-scaling-stroke" class="st1" d="M-251.8,401.3c-0.1-11.3-0.9-21-0.2-28.9l0.2-5.5c0-1.2,1-2.2,2.1-2.2
						c0,0,2.3,0.4,5.7,0.4c6.5,0,13.8-2.1,23.7-0.9c1.2,0.1,2.1,1.3,2.1,2.5l-0.5,9l0.4,14l0.1,11.5l0.2,10.1v4.5
						c0,1.2-1,2.2-2.2,2.3c-0.7,0-3.1-0.3-5.7-0.3c-10.3,1-17.3,0.1-20.9,0h-2.7c-1.2,0-2.2-1-2.3-2.2
						C-251.9,411.6-251.7,406.7-251.8,401.3z"/>
					<line vector-effect="non-scaling-stroke" class="st2" x1="-245" y1="383.1" x2="-223.9" y2="383.1"/>
					<line vector-effect="non-scaling-stroke" class="st2" x1="-245" y1="386.9" x2="-223.9" y2="386.9"/>
					<line vector-effect="non-scaling-stroke" class="st2" x1="-245" y1="390.7" x2="-223.9" y2="390.7"/>
					<path class="st3" d="M-240.4,373.9c0-3.3,2.6-5.9,5.9-5.9c3.3,0,5.9,2.6,5.9,5.9s-2.6,5.9-5.9,5.9
						C-237.8,379.8-240.4,377.1-240.4,373.9z"/>
					<g id="Group_3_">
						<g transform="matrix(1.279,0,0,1.279,20.568,95.285)">
							<g class="st4">
								<path class="st5" d="M-204.2,239.5c-0.2,0.2-0.6,0.4-1,0.4v0.7h-0.5v-0.7c-0.3,0-0.6-0.1-0.8-0.2c-0.3-0.1-0.5-0.2-0.6-0.3
									l0.3-0.6c0.1,0.1,0.3,0.2,0.5,0.3c0.2,0.1,0.4,0.1,0.7,0.2v-1.2c-0.3-0.1-0.5-0.1-0.7-0.2c-0.2-0.1-0.3-0.2-0.5-0.4
									c-0.1-0.2-0.2-0.4-0.2-0.6c0-0.3,0.1-0.6,0.4-0.8c0.2-0.2,0.6-0.4,1-0.4v-0.7h0.5v0.7c0.2,0,0.4,0.1,0.7,0.1
									c0.2,0.1,0.4,0.1,0.6,0.3l-0.2,0.6c-0.3-0.2-0.6-0.3-1-0.3v1.2c0.3,0.1,0.5,0.1,0.7,0.2c0.2,0.1,0.4,0.2,0.5,0.4
									c0.1,0.2,0.2,0.4,0.2,0.6C-203.9,239-204,239.3-204.2,239.5z M-206.2,237.1c0.1,0.1,0.3,0.1,0.5,0.2v-1.1
									c-0.2,0-0.4,0.1-0.5,0.2s-0.2,0.2-0.2,0.4C-206.3,237-206.3,237.1-206.2,237.1z M-204.8,239.1c0.1-0.1,0.2-0.2,0.2-0.3
									s-0.1-0.2-0.2-0.3c-0.1-0.1-0.3-0.2-0.5-0.2v1.1C-205,239.2-204.9,239.2-204.8,239.1z"/>
								<path class="st5" d="M-202,235.7v4.2h-0.8v-3.5h-0.9v-0.7H-202z"/>
								<path class="st5" d="M-200.3,239.7c-0.3-0.2-0.5-0.4-0.6-0.7c-0.2-0.3-0.2-0.7-0.2-1.2c0-0.4,0.1-0.8,0.2-1.2
									c0.2-0.3,0.4-0.6,0.6-0.7c0.3-0.2,0.6-0.3,0.9-0.3s0.6,0.1,0.9,0.3c0.3,0.2,0.5,0.4,0.6,0.7c0.2,0.3,0.2,0.7,0.2,1.2
									c0,0.4-0.1,0.8-0.2,1.2c-0.2,0.3-0.4,0.6-0.6,0.7c-0.3,0.2-0.6,0.3-0.9,0.3S-200,239.8-200.3,239.7z M-198.7,238.9
									c0.2-0.2,0.3-0.6,0.3-1.1c0-0.5-0.1-0.9-0.3-1.1c-0.2-0.2-0.4-0.4-0.7-0.4c-0.3,0-0.5,0.1-0.7,0.4c-0.2,0.2-0.3,0.6-0.3,1.1
									c0,0.5,0.1,0.9,0.3,1.1c0.2,0.2,0.4,0.4,0.7,0.4C-199.1,239.2-198.9,239.1-198.7,238.9z"/>
								<path class="st5" d="M-196.3,239.7c-0.3-0.2-0.5-0.4-0.6-0.7c-0.2-0.3-0.2-0.7-0.2-1.2c0-0.4,0.1-0.8,0.2-1.2
									c0.2-0.3,0.4-0.6,0.6-0.7c0.3-0.2,0.6-0.3,0.9-0.3s0.6,0.1,0.9,0.3c0.3,0.2,0.5,0.4,0.6,0.7c0.2,0.3,0.2,0.7,0.2,1.2
									c0,0.4-0.1,0.8-0.2,1.2c-0.2,0.3-0.4,0.6-0.6,0.7c-0.3,0.2-0.6,0.3-0.9,0.3S-196,239.8-196.3,239.7z M-194.6,238.9
									c0.2-0.2,0.3-0.6,0.3-1.1c0-0.5-0.1-0.9-0.3-1.1c-0.2-0.2-0.4-0.4-0.7-0.4c-0.3,0-0.5,0.1-0.7,0.4c-0.2,0.2-0.3,0.6-0.3,1.1
									c0,0.5,0.1,0.9,0.3,1.1c0.2,0.2,0.4,0.4,0.7,0.4C-195.1,239.2-194.8,239.1-194.6,238.9z"/>
							</g>
						</g>
					</g>
					<path class="st6" d="M-245.1,407h21.3c0.7,0,1.3,0.6,1.3,1.3v4.6c0,0.7-0.6,1.3-1.3,1.3h-21.3c-0.7,0-1.3-0.6-1.3-1.3v-4.6
						C-246.5,407.6-245.9,407-245.1,407z"/>
				</g>
				<g id="Group_6_">
					<path vector-effect="non-scaling-stroke" class="st7" d="M-221.9,413.3c-0.1-11.3-0.9-21-0.2-28.9l0.2-5.5c0-1.2,1-2.2,2.1-2.2
						c0,0,2.3,0.4,5.7,0.4c6.5,0,13.8-2.1,23.7-0.9c1.2,0.1,2.1,1.3,2.1,2.5l-0.5,9l0.4,14l0.1,11.5l0.2,10.1v4.5
						c0,1.2-1,2.2-2.2,2.3c-0.7,0-3.1-0.3-5.7-0.3c-10.3,1-17.3,0.1-20.9,0h-2.7c-1.2,0-2.2-1-2.3-2.2
						C-222,423.7-221.8,418.8-221.9,413.3z"/>
					<line vector-effect="non-scaling-stroke" class="st2" x1="-215.1" y1="395.1" x2="-194.1" y2="395.1"/>
					<line vector-effect="non-scaling-stroke" class="st2" x1="-215.1" y1="399" x2="-194.1" y2="399"/>
					<line vector-effect="non-scaling-stroke" class="st2" x1="-215.1" y1="402.8" x2="-194.1" y2="402.8"/>
					<path class="st3" d="M-210.5,385.9c0-3.3,2.6-5.9,5.9-5.9s5.9,2.6,5.9,5.9s-2.6,5.9-5.9,5.9S-210.5,389.2-210.5,385.9z"/>
					<g id="Group_5_">
						<g transform="matrix(1.279,0,0,1.279,79.079,119.418)">
							<g class="st4">
								<path class="st5" d="M-227.1,230.1c-0.2,0.2-0.6,0.4-1,0.4v0.7h-0.5v-0.7c-0.3,0-0.6-0.1-0.8-0.2c-0.3-0.1-0.5-0.2-0.6-0.3
									l0.3-0.6c0.1,0.1,0.3,0.2,0.5,0.3c0.2,0.1,0.4,0.1,0.7,0.2v-1.2c-0.3-0.1-0.5-0.1-0.7-0.2c-0.2-0.1-0.3-0.2-0.5-0.4
									c-0.1-0.2-0.2-0.4-0.2-0.6c0-0.3,0.1-0.6,0.4-0.8c0.2-0.2,0.6-0.4,1-0.4v-0.7h0.5v0.7c0.2,0,0.4,0.1,0.7,0.1
									c0.2,0.1,0.4,0.1,0.6,0.3l-0.2,0.6c-0.3-0.2-0.6-0.3-1-0.3v1.2c0.3,0.1,0.5,0.1,0.7,0.2c0.2,0.1,0.4,0.2,0.5,0.4
									c0.1,0.2,0.2,0.4,0.2,0.6C-226.7,229.6-226.8,229.8-227.1,230.1z M-229.1,227.7c0.1,0.1,0.3,0.1,0.5,0.2v-1.1
									c-0.2,0-0.4,0.1-0.5,0.2c-0.1,0.1-0.2,0.2-0.2,0.4C-229.2,227.5-229.2,227.6-229.1,227.7z M-227.6,229.6
									c0.1-0.1,0.2-0.2,0.2-0.3s-0.1-0.2-0.2-0.3c-0.1-0.1-0.3-0.2-0.5-0.2v1.1C-227.9,229.8-227.7,229.7-227.6,229.6z"/>
								<path class="st5" d="M-223.2,229.8v0.7h-3.1v-0.5l1.7-1.6c0.2-0.2,0.3-0.3,0.4-0.5c0.1-0.1,0.1-0.3,0.1-0.4
									c0-0.2-0.1-0.3-0.2-0.4s-0.3-0.2-0.6-0.2c-0.4,0-0.8,0.1-1,0.4l-0.5-0.4c0.2-0.2,0.4-0.4,0.7-0.5c0.3-0.1,0.6-0.2,0.9-0.2
									c0.5,0,0.8,0.1,1.1,0.3c0.3,0.2,0.4,0.5,0.4,0.9c0,0.2,0,0.4-0.1,0.6c-0.1,0.2-0.3,0.4-0.6,0.7l-1.1,1.1H-223.2z"/>
								<path class="st5" d="M-221.9,230.2c-0.3-0.2-0.5-0.4-0.6-0.7c-0.2-0.3-0.2-0.7-0.2-1.2c0-0.4,0.1-0.8,0.2-1.2
									c0.2-0.3,0.4-0.6,0.6-0.7c0.3-0.2,0.6-0.3,0.9-0.3c0.3,0,0.6,0.1,0.9,0.3c0.3,0.2,0.5,0.4,0.6,0.7c0.2,0.3,0.2,0.7,0.2,1.2
									c0,0.4-0.1,0.8-0.2,1.2c-0.2,0.3-0.4,0.6-0.6,0.7c-0.3,0.2-0.6,0.3-0.9,0.3C-221.4,230.5-221.7,230.4-221.9,230.2z
									 M-220.3,229.4c0.2-0.2,0.3-0.6,0.3-1.1c0-0.5-0.1-0.9-0.3-1.1c-0.2-0.2-0.4-0.4-0.7-0.4c-0.3,0-0.5,0.1-0.7,0.4
									c-0.2,0.2-0.3,0.6-0.3,1.1c0,0.5,0.1,0.9,0.3,1.1c0.2,0.2,0.4,0.4,0.7,0.4C-220.7,229.8-220.5,229.7-220.3,229.4z"/>
								<path class="st5" d="M-217.9,230.2c-0.3-0.2-0.5-0.4-0.6-0.7c-0.2-0.3-0.2-0.7-0.2-1.2c0-0.4,0.1-0.8,0.2-1.2
									c0.2-0.3,0.4-0.6,0.6-0.7c0.3-0.2,0.6-0.3,0.9-0.3c0.3,0,0.6,0.1,0.9,0.3c0.3,0.2,0.5,0.4,0.6,0.7c0.2,0.3,0.2,0.7,0.2,1.2
									c0,0.4-0.1,0.8-0.2,1.2c-0.2,0.3-0.4,0.6-0.6,0.7c-0.3,0.2-0.6,0.3-0.9,0.3C-217.3,230.5-217.6,230.4-217.9,230.2z
									 M-216.3,229.4c0.2-0.2,0.3-0.6,0.3-1.1c0-0.5-0.1-0.9-0.3-1.1s-0.4-0.4-0.7-0.4c-0.3,0-0.5,0.1-0.7,0.4s-0.3,0.6-0.3,1.1
									c0,0.5,0.1,0.9,0.3,1.1c0.2,0.2,0.4,0.4,0.7,0.4C-216.7,229.8-216.4,229.7-216.3,229.4z"/>
							</g>
						</g>
					</g>
					<path class="st6" d="M-215.2,419.1h21.3c0.7,0,1.3,0.6,1.3,1.3v4.6c0,0.7-0.6,1.3-1.3,1.3h-21.3c-0.7,0-1.3-0.6-1.3-1.3v-4.6
						C-216.6,419.7-216,419.1-215.2,419.1z"/>
				</g>
			</g>
		</g>
	</g>
</g>
</svg>
